<mxfile host="app.diagrams.net" modified="2024-02-16T14:00:48.427Z" agent="Mozilla/5.0 (Windows NT 10.0; Win64; x64) AppleWebKit/537.36 (KHTML, like Gecko) Chrome/121.0.0.0 Safari/537.36 OPR/107.0.0.0" etag="zdveCbtoZRGeXZmoCxog" version="23.1.3" type="github">
  <diagram id="C5RBs43oDa-KdzZeNtuy" name="Page-1">
    <mxGraphModel dx="1103" dy="588" grid="1" gridSize="10" guides="1" tooltips="1" connect="1" arrows="1" fold="1" page="1" pageScale="1" pageWidth="827" pageHeight="1169" math="0" shadow="0">
      <root>
        <mxCell id="WIyWlLk6GJQsqaUBKTNV-0" />
        <mxCell id="WIyWlLk6GJQsqaUBKTNV-1" parent="WIyWlLk6GJQsqaUBKTNV-0" />
        <mxCell id="myWWar3E-hMSdHv3xqH_-29" style="edgeStyle=orthogonalEdgeStyle;rounded=0;orthogonalLoop=1;jettySize=auto;html=1;" parent="WIyWlLk6GJQsqaUBKTNV-1" source="myWWar3E-hMSdHv3xqH_-0" target="myWWar3E-hMSdHv3xqH_-27" edge="1">
          <mxGeometry relative="1" as="geometry" />
        </mxCell>
        <mxCell id="myWWar3E-hMSdHv3xqH_-0" value="INITIALIZATION" style="shape=process;whiteSpace=wrap;html=1;backgroundOutline=1;" parent="WIyWlLk6GJQsqaUBKTNV-1" vertex="1">
          <mxGeometry x="280" y="65" width="120" height="60" as="geometry" />
        </mxCell>
        <mxCell id="myWWar3E-hMSdHv3xqH_-11" style="edgeStyle=orthogonalEdgeStyle;rounded=0;orthogonalLoop=1;jettySize=auto;html=1;exitX=0.5;exitY=1;exitDx=0;exitDy=0;entryX=0.5;entryY=0;entryDx=0;entryDy=0;" parent="WIyWlLk6GJQsqaUBKTNV-1" source="myWWar3E-hMSdHv3xqH_-2" target="myWWar3E-hMSdHv3xqH_-3" edge="1">
          <mxGeometry relative="1" as="geometry" />
        </mxCell>
        <mxCell id="myWWar3E-hMSdHv3xqH_-2" value="LIBRARY AND VARIABLE TO GNSS&amp;nbsp;" style="rounded=0;whiteSpace=wrap;html=1;" parent="WIyWlLk6GJQsqaUBKTNV-1" vertex="1">
          <mxGeometry x="460" y="115" width="124" height="40" as="geometry" />
        </mxCell>
        <mxCell id="myWWar3E-hMSdHv3xqH_-12" style="edgeStyle=orthogonalEdgeStyle;rounded=0;orthogonalLoop=1;jettySize=auto;html=1;exitX=0.5;exitY=1;exitDx=0;exitDy=0;entryX=0.5;entryY=0;entryDx=0;entryDy=0;" parent="WIyWlLk6GJQsqaUBKTNV-1" source="myWWar3E-hMSdHv3xqH_-3" target="myWWar3E-hMSdHv3xqH_-4" edge="1">
          <mxGeometry relative="1" as="geometry" />
        </mxCell>
        <mxCell id="myWWar3E-hMSdHv3xqH_-3" value="LIBRARY AND VARIABLE TO LORA" style="rounded=0;whiteSpace=wrap;html=1;" parent="WIyWlLk6GJQsqaUBKTNV-1" vertex="1">
          <mxGeometry x="460" y="175" width="124" height="40" as="geometry" />
        </mxCell>
        <mxCell id="myWWar3E-hMSdHv3xqH_-13" style="edgeStyle=orthogonalEdgeStyle;rounded=0;orthogonalLoop=1;jettySize=auto;html=1;exitX=0.5;exitY=1;exitDx=0;exitDy=0;entryX=0.5;entryY=0;entryDx=0;entryDy=0;" parent="WIyWlLk6GJQsqaUBKTNV-1" source="myWWar3E-hMSdHv3xqH_-4" target="myWWar3E-hMSdHv3xqH_-5" edge="1">
          <mxGeometry relative="1" as="geometry" />
        </mxCell>
        <mxCell id="myWWar3E-hMSdHv3xqH_-4" value="LIBRARY AND VARIABLE TO SHT21" style="rounded=0;whiteSpace=wrap;html=1;" parent="WIyWlLk6GJQsqaUBKTNV-1" vertex="1">
          <mxGeometry x="460" y="235" width="124" height="40" as="geometry" />
        </mxCell>
        <mxCell id="myWWar3E-hMSdHv3xqH_-14" style="edgeStyle=orthogonalEdgeStyle;rounded=0;orthogonalLoop=1;jettySize=auto;html=1;exitX=0.5;exitY=1;exitDx=0;exitDy=0;entryX=0.5;entryY=0;entryDx=0;entryDy=0;" parent="WIyWlLk6GJQsqaUBKTNV-1" source="myWWar3E-hMSdHv3xqH_-5" target="myWWar3E-hMSdHv3xqH_-6" edge="1">
          <mxGeometry relative="1" as="geometry" />
        </mxCell>
        <mxCell id="myWWar3E-hMSdHv3xqH_-5" value="LIBRARY AND VARIABLE TO AXL245" style="rounded=0;whiteSpace=wrap;html=1;" parent="WIyWlLk6GJQsqaUBKTNV-1" vertex="1">
          <mxGeometry x="460" y="295" width="124" height="40" as="geometry" />
        </mxCell>
        <mxCell id="myWWar3E-hMSdHv3xqH_-15" style="edgeStyle=orthogonalEdgeStyle;rounded=0;orthogonalLoop=1;jettySize=auto;html=1;exitX=0.5;exitY=1;exitDx=0;exitDy=0;entryX=0.5;entryY=0;entryDx=0;entryDy=0;" parent="WIyWlLk6GJQsqaUBKTNV-1" source="myWWar3E-hMSdHv3xqH_-6" target="myWWar3E-hMSdHv3xqH_-7" edge="1">
          <mxGeometry relative="1" as="geometry" />
        </mxCell>
        <mxCell id="myWWar3E-hMSdHv3xqH_-6" value="LIBRARY AND VARIABLE TO BATTERY STATUS" style="rounded=0;whiteSpace=wrap;html=1;" parent="WIyWlLk6GJQsqaUBKTNV-1" vertex="1">
          <mxGeometry x="460" y="355" width="124" height="40" as="geometry" />
        </mxCell>
        <mxCell id="myWWar3E-hMSdHv3xqH_-16" style="edgeStyle=orthogonalEdgeStyle;rounded=0;orthogonalLoop=1;jettySize=auto;html=1;exitX=0.5;exitY=1;exitDx=0;exitDy=0;entryX=0.5;entryY=0;entryDx=0;entryDy=0;" parent="WIyWlLk6GJQsqaUBKTNV-1" source="myWWar3E-hMSdHv3xqH_-7" target="myWWar3E-hMSdHv3xqH_-8" edge="1">
          <mxGeometry relative="1" as="geometry" />
        </mxCell>
        <mxCell id="myWWar3E-hMSdHv3xqH_-7" value="DEFINITIONS TO DEEP SLEEP MODE" style="rounded=0;whiteSpace=wrap;html=1;" parent="WIyWlLk6GJQsqaUBKTNV-1" vertex="1">
          <mxGeometry x="460" y="415" width="124" height="40" as="geometry" />
        </mxCell>
        <mxCell id="myWWar3E-hMSdHv3xqH_-25" style="edgeStyle=orthogonalEdgeStyle;rounded=0;orthogonalLoop=1;jettySize=auto;html=1;" parent="WIyWlLk6GJQsqaUBKTNV-1" source="myWWar3E-hMSdHv3xqH_-8" target="myWWar3E-hMSdHv3xqH_-24" edge="1">
          <mxGeometry relative="1" as="geometry" />
        </mxCell>
        <mxCell id="myWWar3E-hMSdHv3xqH_-8" value="SYSTEM VARIABLES&amp;nbsp;" style="rounded=0;whiteSpace=wrap;html=1;" parent="WIyWlLk6GJQsqaUBKTNV-1" vertex="1">
          <mxGeometry x="460" y="475" width="124" height="40" as="geometry" />
        </mxCell>
        <mxCell id="myWWar3E-hMSdHv3xqH_-23" style="edgeStyle=orthogonalEdgeStyle;rounded=0;orthogonalLoop=1;jettySize=auto;html=1;" parent="WIyWlLk6GJQsqaUBKTNV-1" source="myWWar3E-hMSdHv3xqH_-18" target="myWWar3E-hMSdHv3xqH_-2" edge="1">
          <mxGeometry relative="1" as="geometry" />
        </mxCell>
        <mxCell id="myWWar3E-hMSdHv3xqH_-18" value="ESP START" style="rounded=1;whiteSpace=wrap;html=1;" parent="WIyWlLk6GJQsqaUBKTNV-1" vertex="1">
          <mxGeometry x="486.5" y="65" width="71" height="30" as="geometry" />
        </mxCell>
        <mxCell id="myWWar3E-hMSdHv3xqH_-24" value="FINISH" style="rounded=1;whiteSpace=wrap;html=1;" parent="WIyWlLk6GJQsqaUBKTNV-1" vertex="1">
          <mxGeometry x="479" y="535" width="86" height="40" as="geometry" />
        </mxCell>
        <mxCell id="myWWar3E-hMSdHv3xqH_-26" value="INITIALIZATION" style="text;html=1;align=center;verticalAlign=middle;resizable=0;points=[];autosize=1;strokeColor=none;fillColor=none;" parent="WIyWlLk6GJQsqaUBKTNV-1" vertex="1">
          <mxGeometry x="467" y="35" width="110" height="30" as="geometry" />
        </mxCell>
        <mxCell id="myWWar3E-hMSdHv3xqH_-30" style="edgeStyle=orthogonalEdgeStyle;rounded=0;orthogonalLoop=1;jettySize=auto;html=1;" parent="WIyWlLk6GJQsqaUBKTNV-1" source="myWWar3E-hMSdHv3xqH_-27" target="myWWar3E-hMSdHv3xqH_-28" edge="1">
          <mxGeometry relative="1" as="geometry" />
        </mxCell>
        <mxCell id="myWWar3E-hMSdHv3xqH_-27" value="SETUP" style="shape=process;whiteSpace=wrap;html=1;backgroundOutline=1;" parent="WIyWlLk6GJQsqaUBKTNV-1" vertex="1">
          <mxGeometry x="280" y="145" width="120" height="60" as="geometry" />
        </mxCell>
        <mxCell id="myWWar3E-hMSdHv3xqH_-28" value="LOOP" style="shape=process;whiteSpace=wrap;html=1;backgroundOutline=1;" parent="WIyWlLk6GJQsqaUBKTNV-1" vertex="1">
          <mxGeometry x="280" y="225" width="120" height="60" as="geometry" />
        </mxCell>
        <mxCell id="myWWar3E-hMSdHv3xqH_-31" value="SOFTWARE" style="text;html=1;align=center;verticalAlign=middle;resizable=0;points=[];autosize=1;strokeColor=none;fillColor=none;" parent="WIyWlLk6GJQsqaUBKTNV-1" vertex="1">
          <mxGeometry x="295" y="35" width="90" height="30" as="geometry" />
        </mxCell>
        <mxCell id="OkAuhqTFZf1XxPpOpl2h-7" style="edgeStyle=orthogonalEdgeStyle;rounded=0;orthogonalLoop=1;jettySize=auto;html=1;" edge="1" parent="WIyWlLk6GJQsqaUBKTNV-1" source="myWWar3E-hMSdHv3xqH_-32" target="OkAuhqTFZf1XxPpOpl2h-6">
          <mxGeometry relative="1" as="geometry" />
        </mxCell>
        <mxCell id="myWWar3E-hMSdHv3xqH_-32" value="START VOID SETUP" style="rounded=1;whiteSpace=wrap;html=1;" parent="WIyWlLk6GJQsqaUBKTNV-1" vertex="1">
          <mxGeometry x="674" y="60" width="76" height="30" as="geometry" />
        </mxCell>
        <mxCell id="OkAuhqTFZf1XxPpOpl2h-1" style="edgeStyle=orthogonalEdgeStyle;rounded=0;orthogonalLoop=1;jettySize=auto;html=1;" edge="1" parent="WIyWlLk6GJQsqaUBKTNV-1" source="myWWar3E-hMSdHv3xqH_-33" target="OkAuhqTFZf1XxPpOpl2h-0">
          <mxGeometry relative="1" as="geometry" />
        </mxCell>
        <mxCell id="myWWar3E-hMSdHv3xqH_-33" value="READ EEPROM FLAG" style="rounded=0;whiteSpace=wrap;html=1;" parent="WIyWlLk6GJQsqaUBKTNV-1" vertex="1">
          <mxGeometry x="650" y="165" width="124" height="40" as="geometry" />
        </mxCell>
        <mxCell id="myWWar3E-hMSdHv3xqH_-35" value="GNSS&amp;nbsp;IN HOT MODE" style="rounded=0;whiteSpace=wrap;html=1;" parent="WIyWlLk6GJQsqaUBKTNV-1" vertex="1">
          <mxGeometry x="650" y="459" width="124" height="40" as="geometry" />
        </mxCell>
        <mxCell id="myWWar3E-hMSdHv3xqH_-38" value="FINSH VOID SETUP" style="rounded=1;whiteSpace=wrap;html=1;" parent="WIyWlLk6GJQsqaUBKTNV-1" vertex="1">
          <mxGeometry x="677" y="697.5" width="71" height="30" as="geometry" />
        </mxCell>
        <mxCell id="myWWar3E-hMSdHv3xqH_-45" value="SETUP" style="text;html=1;align=center;verticalAlign=middle;resizable=0;points=[];autosize=1;strokeColor=none;fillColor=none;" parent="WIyWlLk6GJQsqaUBKTNV-1" vertex="1">
          <mxGeometry x="650" y="35" width="60" height="30" as="geometry" />
        </mxCell>
        <mxCell id="KdF7l_LlImrHwwRQQBVm-153" style="edgeStyle=orthogonalEdgeStyle;rounded=0;orthogonalLoop=1;jettySize=auto;html=1;exitX=0.5;exitY=1;exitDx=0;exitDy=0;entryX=0.5;entryY=0;entryDx=0;entryDy=0;" parent="WIyWlLk6GJQsqaUBKTNV-1" source="KdF7l_LlImrHwwRQQBVm-0" target="KdF7l_LlImrHwwRQQBVm-2" edge="1">
          <mxGeometry relative="1" as="geometry" />
        </mxCell>
        <mxCell id="KdF7l_LlImrHwwRQQBVm-0" value="START VOID LOOP" style="rounded=1;whiteSpace=wrap;html=1;" parent="WIyWlLk6GJQsqaUBKTNV-1" vertex="1">
          <mxGeometry x="1447.74" y="51" width="71" height="30" as="geometry" />
        </mxCell>
        <mxCell id="KdF7l_LlImrHwwRQQBVm-1" value="&lt;h1&gt;DEVICE&amp;nbsp;&lt;/h1&gt;THE DEVICE IS THE PART THAN FALLOW THE ANIMAL&lt;p&gt;THIS IS ALL PARTS OF THE DEVICE. THE SYSTEM HAS DIVIDER IN INITIALIZATION, SETUP AND LOOP.&lt;/p&gt;" style="text;html=1;strokeColor=none;fillColor=none;spacing=5;spacingTop=-20;whiteSpace=wrap;overflow=hidden;rounded=0;" parent="WIyWlLk6GJQsqaUBKTNV-1" vertex="1">
          <mxGeometry x="30" y="45" width="190" height="120" as="geometry" />
        </mxCell>
        <mxCell id="CjqXBW7dsxjNqschvaUf-3" style="edgeStyle=orthogonalEdgeStyle;rounded=0;orthogonalLoop=1;jettySize=auto;html=1;exitX=0.5;exitY=1;exitDx=0;exitDy=0;entryX=0.5;entryY=0;entryDx=0;entryDy=0;" parent="WIyWlLk6GJQsqaUBKTNV-1" source="KdF7l_LlImrHwwRQQBVm-2" edge="1">
          <mxGeometry relative="1" as="geometry">
            <mxPoint x="1483.2399999999998" y="145.9999999999999" as="targetPoint" />
          </mxGeometry>
        </mxCell>
        <mxCell id="KdF7l_LlImrHwwRQQBVm-2" value="DEEP_SLEEP_WAKEUP" style="rounded=0;whiteSpace=wrap;html=1;" parent="WIyWlLk6GJQsqaUBKTNV-1" vertex="1">
          <mxGeometry x="1408.24" y="96" width="150" height="40" as="geometry" />
        </mxCell>
        <mxCell id="KdF7l_LlImrHwwRQQBVm-7" style="edgeStyle=orthogonalEdgeStyle;rounded=0;orthogonalLoop=1;jettySize=auto;html=1;" parent="WIyWlLk6GJQsqaUBKTNV-1" source="KdF7l_LlImrHwwRQQBVm-3" edge="1">
          <mxGeometry relative="1" as="geometry">
            <mxPoint x="1589.24" y="368.5" as="targetPoint" />
          </mxGeometry>
        </mxCell>
        <mxCell id="KdF7l_LlImrHwwRQQBVm-18" style="edgeStyle=orthogonalEdgeStyle;rounded=0;orthogonalLoop=1;jettySize=auto;html=1;entryX=0.5;entryY=0;entryDx=0;entryDy=0;" parent="WIyWlLk6GJQsqaUBKTNV-1" source="KdF7l_LlImrHwwRQQBVm-3" target="KdF7l_LlImrHwwRQQBVm-12" edge="1">
          <mxGeometry relative="1" as="geometry" />
        </mxCell>
        <mxCell id="KdF7l_LlImrHwwRQQBVm-3" value="LAT AND LON EXIST ?" style="rhombus;whiteSpace=wrap;html=1;shadow=0;fontFamily=Helvetica;fontSize=12;align=center;strokeWidth=1;spacing=6;spacingTop=-4;" parent="WIyWlLk6GJQsqaUBKTNV-1" vertex="1">
          <mxGeometry x="1421.24" y="323.5" width="124" height="90" as="geometry" />
        </mxCell>
        <mxCell id="KdF7l_LlImrHwwRQQBVm-9" style="edgeStyle=orthogonalEdgeStyle;rounded=0;orthogonalLoop=1;jettySize=auto;html=1;" parent="WIyWlLk6GJQsqaUBKTNV-1" source="KdF7l_LlImrHwwRQQBVm-5" target="KdF7l_LlImrHwwRQQBVm-3" edge="1">
          <mxGeometry relative="1" as="geometry" />
        </mxCell>
        <mxCell id="KdF7l_LlImrHwwRQQBVm-5" value="WAIT GNSS INFORMATIONS" style="rounded=0;whiteSpace=wrap;html=1;" parent="WIyWlLk6GJQsqaUBKTNV-1" vertex="1">
          <mxGeometry x="1408.24" y="258.5" width="150" height="40" as="geometry" />
        </mxCell>
        <mxCell id="KdF7l_LlImrHwwRQQBVm-150" style="edgeStyle=orthogonalEdgeStyle;rounded=0;orthogonalLoop=1;jettySize=auto;html=1;entryX=0.5;entryY=1;entryDx=0;entryDy=0;" parent="WIyWlLk6GJQsqaUBKTNV-1" source="KdF7l_LlImrHwwRQQBVm-8" target="KdF7l_LlImrHwwRQQBVm-149" edge="1">
          <mxGeometry relative="1" as="geometry" />
        </mxCell>
        <mxCell id="KdF7l_LlImrHwwRQQBVm-158" style="edgeStyle=orthogonalEdgeStyle;rounded=0;orthogonalLoop=1;jettySize=auto;html=1;" parent="WIyWlLk6GJQsqaUBKTNV-1" source="KdF7l_LlImrHwwRQQBVm-8" target="KdF7l_LlImrHwwRQQBVm-155" edge="1">
          <mxGeometry relative="1" as="geometry" />
        </mxCell>
        <mxCell id="KdF7l_LlImrHwwRQQBVm-8" value="TIME WAITING SMALLER THAN TIME DEFINED?" style="rhombus;whiteSpace=wrap;html=1;shadow=0;fontFamily=Helvetica;fontSize=12;align=center;strokeWidth=1;spacing=6;spacingTop=-4;" parent="WIyWlLk6GJQsqaUBKTNV-1" vertex="1">
          <mxGeometry x="1589.24" y="318.5" width="140" height="100" as="geometry" />
        </mxCell>
        <mxCell id="KdF7l_LlImrHwwRQQBVm-67" style="edgeStyle=orthogonalEdgeStyle;rounded=0;orthogonalLoop=1;jettySize=auto;html=1;" parent="WIyWlLk6GJQsqaUBKTNV-1" source="KdF7l_LlImrHwwRQQBVm-12" target="KdF7l_LlImrHwwRQQBVm-64" edge="1">
          <mxGeometry relative="1" as="geometry" />
        </mxCell>
        <mxCell id="KdF7l_LlImrHwwRQQBVm-12" value="GNSS IN STANDBY" style="rounded=0;whiteSpace=wrap;html=1;" parent="WIyWlLk6GJQsqaUBKTNV-1" vertex="1">
          <mxGeometry x="1408.24" y="443.5" width="150" height="40" as="geometry" />
        </mxCell>
        <mxCell id="KdF7l_LlImrHwwRQQBVm-13" value="&lt;font color=&quot;#00ff00&quot;&gt;YES&lt;/font&gt;" style="text;html=1;strokeColor=none;fillColor=none;align=center;verticalAlign=middle;whiteSpace=wrap;rounded=0;" parent="WIyWlLk6GJQsqaUBKTNV-1" vertex="1">
          <mxGeometry x="1476.74" y="413.5" width="60" height="30" as="geometry" />
        </mxCell>
        <mxCell id="KdF7l_LlImrHwwRQQBVm-14" value="&lt;font color=&quot;#00ff00&quot;&gt;YES&lt;/font&gt;" style="text;html=1;strokeColor=none;fillColor=none;align=center;verticalAlign=middle;whiteSpace=wrap;rounded=0;" parent="WIyWlLk6GJQsqaUBKTNV-1" vertex="1">
          <mxGeometry x="1661.24" y="413.5" width="60" height="30" as="geometry" />
        </mxCell>
        <mxCell id="KdF7l_LlImrHwwRQQBVm-16" value="&lt;font color=&quot;#ff0000&quot;&gt;NO&lt;/font&gt;" style="text;html=1;strokeColor=none;fillColor=none;align=center;verticalAlign=middle;whiteSpace=wrap;rounded=0;" parent="WIyWlLk6GJQsqaUBKTNV-1" vertex="1">
          <mxGeometry x="1661.24" y="303.5" width="60" height="30" as="geometry" />
        </mxCell>
        <mxCell id="KdF7l_LlImrHwwRQQBVm-17" value="&lt;font color=&quot;#ff0000&quot;&gt;NO&lt;/font&gt;" style="text;html=1;strokeColor=none;fillColor=none;align=center;verticalAlign=middle;whiteSpace=wrap;rounded=0;" parent="WIyWlLk6GJQsqaUBKTNV-1" vertex="1">
          <mxGeometry x="1529.24" y="343.5" width="60" height="30" as="geometry" />
        </mxCell>
        <mxCell id="KdF7l_LlImrHwwRQQBVm-22" style="edgeStyle=orthogonalEdgeStyle;rounded=0;orthogonalLoop=1;jettySize=auto;html=1;entryX=0.5;entryY=0;entryDx=0;entryDy=0;" parent="WIyWlLk6GJQsqaUBKTNV-1" edge="1">
          <mxGeometry relative="1" as="geometry">
            <mxPoint x="1195" y="445" as="sourcePoint" />
          </mxGeometry>
        </mxCell>
        <mxCell id="KdF7l_LlImrHwwRQQBVm-24" style="edgeStyle=orthogonalEdgeStyle;rounded=0;orthogonalLoop=1;jettySize=auto;html=1;" parent="WIyWlLk6GJQsqaUBKTNV-1" edge="1">
          <mxGeometry relative="1" as="geometry">
            <mxPoint x="1195" y="505" as="sourcePoint" />
          </mxGeometry>
        </mxCell>
        <mxCell id="KdF7l_LlImrHwwRQQBVm-44" style="edgeStyle=orthogonalEdgeStyle;rounded=0;orthogonalLoop=1;jettySize=auto;html=1;" parent="WIyWlLk6GJQsqaUBKTNV-1" edge="1">
          <mxGeometry relative="1" as="geometry">
            <mxPoint x="1195" y="565" as="sourcePoint" />
          </mxGeometry>
        </mxCell>
        <mxCell id="KdF7l_LlImrHwwRQQBVm-45" style="edgeStyle=orthogonalEdgeStyle;rounded=0;orthogonalLoop=1;jettySize=auto;html=1;entryX=0.5;entryY=0;entryDx=0;entryDy=0;" parent="WIyWlLk6GJQsqaUBKTNV-1" edge="1">
          <mxGeometry relative="1" as="geometry">
            <mxPoint x="1195" y="625" as="sourcePoint" />
          </mxGeometry>
        </mxCell>
        <mxCell id="KdF7l_LlImrHwwRQQBVm-57" style="edgeStyle=orthogonalEdgeStyle;rounded=0;orthogonalLoop=1;jettySize=auto;html=1;entryX=0.5;entryY=0;entryDx=0;entryDy=0;" parent="WIyWlLk6GJQsqaUBKTNV-1" source="KdF7l_LlImrHwwRQQBVm-51" target="KdF7l_LlImrHwwRQQBVm-53" edge="1">
          <mxGeometry relative="1" as="geometry" />
        </mxCell>
        <mxCell id="KdF7l_LlImrHwwRQQBVm-51" value="LORA SENSOR ON" style="rounded=0;whiteSpace=wrap;html=1;" parent="WIyWlLk6GJQsqaUBKTNV-1" vertex="1">
          <mxGeometry x="1408.24" y="583.5" width="150" height="40" as="geometry" />
        </mxCell>
        <mxCell id="KdF7l_LlImrHwwRQQBVm-56" style="edgeStyle=orthogonalEdgeStyle;rounded=0;orthogonalLoop=1;jettySize=auto;html=1;entryX=0.5;entryY=0;entryDx=0;entryDy=0;" parent="WIyWlLk6GJQsqaUBKTNV-1" source="KdF7l_LlImrHwwRQQBVm-53" target="KdF7l_LlImrHwwRQQBVm-55" edge="1">
          <mxGeometry relative="1" as="geometry" />
        </mxCell>
        <mxCell id="KdF7l_LlImrHwwRQQBVm-53" value="EMPACOTATE ALL VALUES MENSUREDS" style="rounded=0;whiteSpace=wrap;html=1;" parent="WIyWlLk6GJQsqaUBKTNV-1" vertex="1">
          <mxGeometry x="1408.24" y="643.5" width="150" height="40" as="geometry" />
        </mxCell>
        <mxCell id="KdF7l_LlImrHwwRQQBVm-115" style="edgeStyle=orthogonalEdgeStyle;rounded=0;orthogonalLoop=1;jettySize=auto;html=1;entryX=0.5;entryY=0;entryDx=0;entryDy=0;" parent="WIyWlLk6GJQsqaUBKTNV-1" source="KdF7l_LlImrHwwRQQBVm-55" target="KdF7l_LlImrHwwRQQBVm-114" edge="1">
          <mxGeometry relative="1" as="geometry" />
        </mxCell>
        <mxCell id="KdF7l_LlImrHwwRQQBVm-55" value="SYSTEM OF SEND LORA SIGNAL" style="shape=process;whiteSpace=wrap;html=1;backgroundOutline=1;" parent="WIyWlLk6GJQsqaUBKTNV-1" vertex="1">
          <mxGeometry x="1423.24" y="703.5" width="120" height="60" as="geometry" />
        </mxCell>
        <mxCell id="KdF7l_LlImrHwwRQQBVm-69" style="edgeStyle=orthogonalEdgeStyle;rounded=0;orthogonalLoop=1;jettySize=auto;html=1;entryX=0.5;entryY=0;entryDx=0;entryDy=0;" parent="WIyWlLk6GJQsqaUBKTNV-1" source="KdF7l_LlImrHwwRQQBVm-58" target="KdF7l_LlImrHwwRQQBVm-59" edge="1">
          <mxGeometry relative="1" as="geometry" />
        </mxCell>
        <mxCell id="KdF7l_LlImrHwwRQQBVm-58" value="SYSTEM READ BATTERY ON" style="rounded=0;whiteSpace=wrap;html=1;" parent="WIyWlLk6GJQsqaUBKTNV-1" vertex="1">
          <mxGeometry x="2009.24" y="107.5" width="150" height="40" as="geometry" />
        </mxCell>
        <mxCell id="KdF7l_LlImrHwwRQQBVm-70" style="edgeStyle=orthogonalEdgeStyle;rounded=0;orthogonalLoop=1;jettySize=auto;html=1;" parent="WIyWlLk6GJQsqaUBKTNV-1" source="KdF7l_LlImrHwwRQQBVm-59" target="KdF7l_LlImrHwwRQQBVm-60" edge="1">
          <mxGeometry relative="1" as="geometry" />
        </mxCell>
        <mxCell id="KdF7l_LlImrHwwRQQBVm-59" value="READ BATTERY LEVEL" style="rounded=0;whiteSpace=wrap;html=1;" parent="WIyWlLk6GJQsqaUBKTNV-1" vertex="1">
          <mxGeometry x="2009.24" y="167.5" width="150" height="40" as="geometry" />
        </mxCell>
        <mxCell id="KdF7l_LlImrHwwRQQBVm-71" style="edgeStyle=orthogonalEdgeStyle;rounded=0;orthogonalLoop=1;jettySize=auto;html=1;entryX=0.5;entryY=0;entryDx=0;entryDy=0;" parent="WIyWlLk6GJQsqaUBKTNV-1" source="KdF7l_LlImrHwwRQQBVm-60" target="KdF7l_LlImrHwwRQQBVm-61" edge="1">
          <mxGeometry relative="1" as="geometry" />
        </mxCell>
        <mxCell id="KdF7l_LlImrHwwRQQBVm-60" value="SYSTEM READ BATTERY OFF" style="rounded=0;whiteSpace=wrap;html=1;" parent="WIyWlLk6GJQsqaUBKTNV-1" vertex="1">
          <mxGeometry x="2009.24" y="227.5" width="150" height="40" as="geometry" />
        </mxCell>
        <mxCell id="KdF7l_LlImrHwwRQQBVm-72" style="edgeStyle=orthogonalEdgeStyle;rounded=0;orthogonalLoop=1;jettySize=auto;html=1;entryX=0.5;entryY=0;entryDx=0;entryDy=0;" parent="WIyWlLk6GJQsqaUBKTNV-1" source="KdF7l_LlImrHwwRQQBVm-61" target="KdF7l_LlImrHwwRQQBVm-62" edge="1">
          <mxGeometry relative="1" as="geometry" />
        </mxCell>
        <mxCell id="KdF7l_LlImrHwwRQQBVm-61" value="READ TEMP AND HUMI" style="rounded=0;whiteSpace=wrap;html=1;" parent="WIyWlLk6GJQsqaUBKTNV-1" vertex="1">
          <mxGeometry x="2009.24" y="287.5" width="150" height="40" as="geometry" />
        </mxCell>
        <mxCell id="KdF7l_LlImrHwwRQQBVm-73" style="edgeStyle=orthogonalEdgeStyle;rounded=0;orthogonalLoop=1;jettySize=auto;html=1;entryX=0.5;entryY=0;entryDx=0;entryDy=0;" parent="WIyWlLk6GJQsqaUBKTNV-1" source="KdF7l_LlImrHwwRQQBVm-62" target="KdF7l_LlImrHwwRQQBVm-68" edge="1">
          <mxGeometry relative="1" as="geometry" />
        </mxCell>
        <mxCell id="KdF7l_LlImrHwwRQQBVm-62" value="READ X,Y AND Z (ACCELEROMETER)" style="rounded=0;whiteSpace=wrap;html=1;" parent="WIyWlLk6GJQsqaUBKTNV-1" vertex="1">
          <mxGeometry x="2009.24" y="352.5" width="150" height="40" as="geometry" />
        </mxCell>
        <mxCell id="KdF7l_LlImrHwwRQQBVm-160" style="edgeStyle=orthogonalEdgeStyle;rounded=0;orthogonalLoop=1;jettySize=auto;html=1;entryX=0.5;entryY=0;entryDx=0;entryDy=0;" parent="WIyWlLk6GJQsqaUBKTNV-1" source="KdF7l_LlImrHwwRQQBVm-64" target="KdF7l_LlImrHwwRQQBVm-51" edge="1">
          <mxGeometry relative="1" as="geometry" />
        </mxCell>
        <mxCell id="KdF7l_LlImrHwwRQQBVm-64" value="SYSTEM FOR OBTAINING OTHER DATA" style="shape=process;whiteSpace=wrap;html=1;backgroundOutline=1;size=0.10833333333333334;" parent="WIyWlLk6GJQsqaUBKTNV-1" vertex="1">
          <mxGeometry x="1423.24" y="503.5" width="120" height="60" as="geometry" />
        </mxCell>
        <mxCell id="KdF7l_LlImrHwwRQQBVm-76" style="edgeStyle=orthogonalEdgeStyle;rounded=0;orthogonalLoop=1;jettySize=auto;html=1;entryX=0.5;entryY=0;entryDx=0;entryDy=0;" parent="WIyWlLk6GJQsqaUBKTNV-1" source="KdF7l_LlImrHwwRQQBVm-68" target="KdF7l_LlImrHwwRQQBVm-75" edge="1">
          <mxGeometry relative="1" as="geometry" />
        </mxCell>
        <mxCell id="KdF7l_LlImrHwwRQQBVm-68" value="SENSORS SHT AND AXL245 OFF" style="rounded=0;whiteSpace=wrap;html=1;" parent="WIyWlLk6GJQsqaUBKTNV-1" vertex="1">
          <mxGeometry x="2009.24" y="412.5" width="150" height="40" as="geometry" />
        </mxCell>
        <mxCell id="KdF7l_LlImrHwwRQQBVm-81" style="edgeStyle=orthogonalEdgeStyle;rounded=0;orthogonalLoop=1;jettySize=auto;html=1;" parent="WIyWlLk6GJQsqaUBKTNV-1" source="KdF7l_LlImrHwwRQQBVm-74" target="KdF7l_LlImrHwwRQQBVm-58" edge="1">
          <mxGeometry relative="1" as="geometry" />
        </mxCell>
        <mxCell id="KdF7l_LlImrHwwRQQBVm-74" value="START" style="rounded=1;whiteSpace=wrap;html=1;" parent="WIyWlLk6GJQsqaUBKTNV-1" vertex="1">
          <mxGeometry x="2049.24" y="50" width="70" height="35" as="geometry" />
        </mxCell>
        <mxCell id="KdF7l_LlImrHwwRQQBVm-75" value="FINISH" style="rounded=1;whiteSpace=wrap;html=1;" parent="WIyWlLk6GJQsqaUBKTNV-1" vertex="1">
          <mxGeometry x="2049.24" y="470" width="70" height="35" as="geometry" />
        </mxCell>
        <mxCell id="KdF7l_LlImrHwwRQQBVm-77" value="LOOP" style="text;html=1;align=center;verticalAlign=middle;resizable=0;points=[];autosize=1;strokeColor=none;fillColor=none;" parent="WIyWlLk6GJQsqaUBKTNV-1" vertex="1">
          <mxGeometry x="1398.24" y="26" width="60" height="30" as="geometry" />
        </mxCell>
        <mxCell id="KdF7l_LlImrHwwRQQBVm-78" value="SYSTEM FOR OBTAINING OTHER DATA" style="text;html=1;align=center;verticalAlign=middle;resizable=0;points=[];autosize=1;strokeColor=none;fillColor=none;" parent="WIyWlLk6GJQsqaUBKTNV-1" vertex="1">
          <mxGeometry x="1965.24" y="20" width="250" height="30" as="geometry" />
        </mxCell>
        <mxCell id="KdF7l_LlImrHwwRQQBVm-80" value="&lt;span style=&quot;color: rgb(0, 0, 0); font-family: Helvetica; font-size: 12px; font-style: normal; font-variant-ligatures: normal; font-variant-caps: normal; font-weight: 400; letter-spacing: normal; orphans: 2; text-align: center; text-indent: 0px; text-transform: none; widows: 2; word-spacing: 0px; -webkit-text-stroke-width: 0px; background-color: rgb(251, 251, 251); text-decoration-thickness: initial; text-decoration-style: initial; text-decoration-color: initial; float: none; display: inline !important;&quot;&gt;SYSTEM OF SEND LORA SIGNAL&lt;/span&gt;" style="text;whiteSpace=wrap;html=1;" parent="WIyWlLk6GJQsqaUBKTNV-1" vertex="1">
          <mxGeometry x="1986.24" y="522.5" width="220" height="40" as="geometry" />
        </mxCell>
        <mxCell id="KdF7l_LlImrHwwRQQBVm-82" style="edgeStyle=orthogonalEdgeStyle;rounded=0;orthogonalLoop=1;jettySize=auto;html=1;entryX=0.5;entryY=0;entryDx=0;entryDy=0;" parent="WIyWlLk6GJQsqaUBKTNV-1" source="KdF7l_LlImrHwwRQQBVm-83" target="KdF7l_LlImrHwwRQQBVm-85" edge="1">
          <mxGeometry relative="1" as="geometry" />
        </mxCell>
        <mxCell id="KdF7l_LlImrHwwRQQBVm-83" value="SERIAL COMUNICATION ON" style="rounded=0;whiteSpace=wrap;html=1;" parent="WIyWlLk6GJQsqaUBKTNV-1" vertex="1">
          <mxGeometry x="2006.24" y="610" width="150" height="40" as="geometry" />
        </mxCell>
        <mxCell id="KdF7l_LlImrHwwRQQBVm-84" style="edgeStyle=orthogonalEdgeStyle;rounded=0;orthogonalLoop=1;jettySize=auto;html=1;" parent="WIyWlLk6GJQsqaUBKTNV-1" source="KdF7l_LlImrHwwRQQBVm-85" target="KdF7l_LlImrHwwRQQBVm-87" edge="1">
          <mxGeometry relative="1" as="geometry" />
        </mxCell>
        <mxCell id="KdF7l_LlImrHwwRQQBVm-85" value="DELAY TO DEBUG (10S)" style="rounded=0;whiteSpace=wrap;html=1;" parent="WIyWlLk6GJQsqaUBKTNV-1" vertex="1">
          <mxGeometry x="2006.24" y="670" width="150" height="40" as="geometry" />
        </mxCell>
        <mxCell id="KdF7l_LlImrHwwRQQBVm-86" style="edgeStyle=orthogonalEdgeStyle;rounded=0;orthogonalLoop=1;jettySize=auto;html=1;entryX=0.5;entryY=0;entryDx=0;entryDy=0;" parent="WIyWlLk6GJQsqaUBKTNV-1" source="KdF7l_LlImrHwwRQQBVm-87" target="KdF7l_LlImrHwwRQQBVm-89" edge="1">
          <mxGeometry relative="1" as="geometry" />
        </mxCell>
        <mxCell id="KdF7l_LlImrHwwRQQBVm-87" value="SEND LORA PACKAGE" style="rounded=0;whiteSpace=wrap;html=1;" parent="WIyWlLk6GJQsqaUBKTNV-1" vertex="1">
          <mxGeometry x="2006.24" y="730" width="150" height="40" as="geometry" />
        </mxCell>
        <mxCell id="KdF7l_LlImrHwwRQQBVm-88" style="edgeStyle=orthogonalEdgeStyle;rounded=0;orthogonalLoop=1;jettySize=auto;html=1;entryX=0.5;entryY=0;entryDx=0;entryDy=0;" parent="WIyWlLk6GJQsqaUBKTNV-1" source="KdF7l_LlImrHwwRQQBVm-89" target="KdF7l_LlImrHwwRQQBVm-91" edge="1">
          <mxGeometry relative="1" as="geometry" />
        </mxCell>
        <mxCell id="KdF7l_LlImrHwwRQQBVm-89" value="READ THE MODULO RESPONSE&amp;nbsp;" style="rounded=0;whiteSpace=wrap;html=1;" parent="WIyWlLk6GJQsqaUBKTNV-1" vertex="1">
          <mxGeometry x="2006.24" y="790" width="150" height="40" as="geometry" />
        </mxCell>
        <mxCell id="KdF7l_LlImrHwwRQQBVm-97" style="edgeStyle=orthogonalEdgeStyle;rounded=0;orthogonalLoop=1;jettySize=auto;html=1;" parent="WIyWlLk6GJQsqaUBKTNV-1" source="KdF7l_LlImrHwwRQQBVm-91" target="KdF7l_LlImrHwwRQQBVm-96" edge="1">
          <mxGeometry relative="1" as="geometry" />
        </mxCell>
        <mxCell id="KdF7l_LlImrHwwRQQBVm-91" value="SERIAL COMUNICATION OFF" style="rounded=0;whiteSpace=wrap;html=1;" parent="WIyWlLk6GJQsqaUBKTNV-1" vertex="1">
          <mxGeometry x="2006.24" y="855" width="150" height="40" as="geometry" />
        </mxCell>
        <mxCell id="KdF7l_LlImrHwwRQQBVm-94" style="edgeStyle=orthogonalEdgeStyle;rounded=0;orthogonalLoop=1;jettySize=auto;html=1;" parent="WIyWlLk6GJQsqaUBKTNV-1" source="KdF7l_LlImrHwwRQQBVm-95" target="KdF7l_LlImrHwwRQQBVm-83" edge="1">
          <mxGeometry relative="1" as="geometry" />
        </mxCell>
        <mxCell id="KdF7l_LlImrHwwRQQBVm-95" value="START" style="rounded=1;whiteSpace=wrap;html=1;" parent="WIyWlLk6GJQsqaUBKTNV-1" vertex="1">
          <mxGeometry x="2046.24" y="552.5" width="70" height="35" as="geometry" />
        </mxCell>
        <mxCell id="KdF7l_LlImrHwwRQQBVm-96" value="FINISH" style="rounded=1;whiteSpace=wrap;html=1;" parent="WIyWlLk6GJQsqaUBKTNV-1" vertex="1">
          <mxGeometry x="2046.24" y="915" width="70" height="35" as="geometry" />
        </mxCell>
        <mxCell id="KdF7l_LlImrHwwRQQBVm-123" style="edgeStyle=orthogonalEdgeStyle;rounded=0;orthogonalLoop=1;jettySize=auto;html=1;entryX=1;entryY=0.5;entryDx=0;entryDy=0;exitX=1;exitY=0.5;exitDx=0;exitDy=0;" parent="WIyWlLk6GJQsqaUBKTNV-1" source="KdF7l_LlImrHwwRQQBVm-101" target="KdF7l_LlImrHwwRQQBVm-119" edge="1">
          <mxGeometry relative="1" as="geometry">
            <Array as="points">
              <mxPoint x="1758.24" y="605" />
              <mxPoint x="1758.24" y="1021" />
            </Array>
          </mxGeometry>
        </mxCell>
        <mxCell id="KdF7l_LlImrHwwRQQBVm-253" style="edgeStyle=orthogonalEdgeStyle;rounded=0;orthogonalLoop=1;jettySize=auto;html=1;" parent="WIyWlLk6GJQsqaUBKTNV-1" source="KdF7l_LlImrHwwRQQBVm-101" target="KdF7l_LlImrHwwRQQBVm-106" edge="1">
          <mxGeometry relative="1" as="geometry" />
        </mxCell>
        <mxCell id="KdF7l_LlImrHwwRQQBVm-101" value="EXIST &lt;br&gt;MEMORY?" style="rhombus;whiteSpace=wrap;html=1;shadow=0;fontFamily=Helvetica;fontSize=12;align=center;strokeWidth=1;spacing=6;spacingTop=-4;" parent="WIyWlLk6GJQsqaUBKTNV-1" vertex="1">
          <mxGeometry x="1597.24" y="559.75" width="124" height="90" as="geometry" />
        </mxCell>
        <mxCell id="KdF7l_LlImrHwwRQQBVm-110" style="edgeStyle=orthogonalEdgeStyle;rounded=0;orthogonalLoop=1;jettySize=auto;html=1;" parent="WIyWlLk6GJQsqaUBKTNV-1" source="KdF7l_LlImrHwwRQQBVm-104" target="KdF7l_LlImrHwwRQQBVm-109" edge="1">
          <mxGeometry relative="1" as="geometry" />
        </mxCell>
        <mxCell id="KdF7l_LlImrHwwRQQBVm-104" value="MAKE PACKAGE WITH &quot;HELLO&quot;" style="rounded=0;whiteSpace=wrap;html=1;" parent="WIyWlLk6GJQsqaUBKTNV-1" vertex="1">
          <mxGeometry x="1584.24" y="728.5" width="150" height="40" as="geometry" />
        </mxCell>
        <mxCell id="KdF7l_LlImrHwwRQQBVm-108" style="edgeStyle=orthogonalEdgeStyle;rounded=0;orthogonalLoop=1;jettySize=auto;html=1;" parent="WIyWlLk6GJQsqaUBKTNV-1" source="KdF7l_LlImrHwwRQQBVm-106" target="KdF7l_LlImrHwwRQQBVm-104" edge="1">
          <mxGeometry relative="1" as="geometry" />
        </mxCell>
        <mxCell id="KdF7l_LlImrHwwRQQBVm-106" value="LORA SENSOR ON" style="rounded=0;whiteSpace=wrap;html=1;" parent="WIyWlLk6GJQsqaUBKTNV-1" vertex="1">
          <mxGeometry x="1584.24" y="668.5" width="150" height="40" as="geometry" />
        </mxCell>
        <mxCell id="KdF7l_LlImrHwwRQQBVm-112" style="edgeStyle=orthogonalEdgeStyle;rounded=0;orthogonalLoop=1;jettySize=auto;html=1;entryX=0.5;entryY=0;entryDx=0;entryDy=0;" parent="WIyWlLk6GJQsqaUBKTNV-1" source="KdF7l_LlImrHwwRQQBVm-109" target="KdF7l_LlImrHwwRQQBVm-111" edge="1">
          <mxGeometry relative="1" as="geometry" />
        </mxCell>
        <mxCell id="KdF7l_LlImrHwwRQQBVm-109" value="PREPARATE THE PACKAGE TO SEND" style="rounded=0;whiteSpace=wrap;html=1;" parent="WIyWlLk6GJQsqaUBKTNV-1" vertex="1">
          <mxGeometry x="1584.24" y="788.5" width="150" height="40" as="geometry" />
        </mxCell>
        <mxCell id="KdF7l_LlImrHwwRQQBVm-116" style="edgeStyle=orthogonalEdgeStyle;rounded=0;orthogonalLoop=1;jettySize=auto;html=1;entryX=0.5;entryY=0;entryDx=0;entryDy=0;" parent="WIyWlLk6GJQsqaUBKTNV-1" source="KdF7l_LlImrHwwRQQBVm-111" target="KdF7l_LlImrHwwRQQBVm-114" edge="1">
          <mxGeometry relative="1" as="geometry" />
        </mxCell>
        <mxCell id="KdF7l_LlImrHwwRQQBVm-111" value="SYSTEM OF SEND LORA SIGNAL" style="shape=process;whiteSpace=wrap;html=1;backgroundOutline=1;" parent="WIyWlLk6GJQsqaUBKTNV-1" vertex="1">
          <mxGeometry x="1599.24" y="848.5" width="120" height="60" as="geometry" />
        </mxCell>
        <mxCell id="CjqXBW7dsxjNqschvaUf-4" style="edgeStyle=orthogonalEdgeStyle;rounded=0;orthogonalLoop=1;jettySize=auto;html=1;" parent="WIyWlLk6GJQsqaUBKTNV-1" source="KdF7l_LlImrHwwRQQBVm-114" target="KdF7l_LlImrHwwRQQBVm-117" edge="1">
          <mxGeometry relative="1" as="geometry" />
        </mxCell>
        <mxCell id="KdF7l_LlImrHwwRQQBVm-114" value="SYSTEM OF RECEIVE LORA CONFIRMATION" style="shape=process;whiteSpace=wrap;html=1;backgroundOutline=1;" parent="WIyWlLk6GJQsqaUBKTNV-1" vertex="1">
          <mxGeometry x="1423.24" y="931" width="120" height="60" as="geometry" />
        </mxCell>
        <mxCell id="CjqXBW7dsxjNqschvaUf-5" style="edgeStyle=orthogonalEdgeStyle;rounded=0;orthogonalLoop=1;jettySize=auto;html=1;" parent="WIyWlLk6GJQsqaUBKTNV-1" source="KdF7l_LlImrHwwRQQBVm-117" target="KdF7l_LlImrHwwRQQBVm-119" edge="1">
          <mxGeometry relative="1" as="geometry" />
        </mxCell>
        <mxCell id="KdF7l_LlImrHwwRQQBVm-117" value="LORA SENSOR OFF" style="rounded=0;whiteSpace=wrap;html=1;" parent="WIyWlLk6GJQsqaUBKTNV-1" vertex="1">
          <mxGeometry x="1579.24" y="941" width="150" height="40" as="geometry" />
        </mxCell>
        <mxCell id="KdF7l_LlImrHwwRQQBVm-122" style="edgeStyle=orthogonalEdgeStyle;rounded=0;orthogonalLoop=1;jettySize=auto;html=1;entryX=0.5;entryY=0;entryDx=0;entryDy=0;" parent="WIyWlLk6GJQsqaUBKTNV-1" source="KdF7l_LlImrHwwRQQBVm-119" edge="1">
          <mxGeometry relative="1" as="geometry">
            <mxPoint x="1654.2399999999998" y="1066" as="targetPoint" />
          </mxGeometry>
        </mxCell>
        <mxCell id="KdF7l_LlImrHwwRQQBVm-119" value="DEEP SLEEP MODE" style="rounded=0;whiteSpace=wrap;html=1;" parent="WIyWlLk6GJQsqaUBKTNV-1" vertex="1">
          <mxGeometry x="1579.24" y="1001" width="150" height="40" as="geometry" />
        </mxCell>
        <mxCell id="KdF7l_LlImrHwwRQQBVm-121" value="FINISH VOID LOOP" style="rounded=1;whiteSpace=wrap;html=1;" parent="WIyWlLk6GJQsqaUBKTNV-1" vertex="1">
          <mxGeometry x="1618.74" y="1061" width="71" height="30" as="geometry" />
        </mxCell>
        <mxCell id="KdF7l_LlImrHwwRQQBVm-124" value="&lt;font color=&quot;#ff0000&quot;&gt;NO&lt;/font&gt;" style="text;html=1;strokeColor=none;fillColor=none;align=center;verticalAlign=middle;whiteSpace=wrap;rounded=0;" parent="WIyWlLk6GJQsqaUBKTNV-1" vertex="1">
          <mxGeometry x="1698.24" y="573.5" width="60" height="30" as="geometry" />
        </mxCell>
        <mxCell id="KdF7l_LlImrHwwRQQBVm-125" value="&lt;font color=&quot;#00ff00&quot;&gt;YES&lt;/font&gt;" style="text;html=1;strokeColor=none;fillColor=none;align=center;verticalAlign=middle;whiteSpace=wrap;rounded=0;" parent="WIyWlLk6GJQsqaUBKTNV-1" vertex="1">
          <mxGeometry x="1659.24" y="638.5" width="60" height="30" as="geometry" />
        </mxCell>
        <mxCell id="KdF7l_LlImrHwwRQQBVm-126" value="SYSTEM OF RECEIVE LORA CONFIRMATION" style="text;whiteSpace=wrap;html=1;" parent="WIyWlLk6GJQsqaUBKTNV-1" vertex="1">
          <mxGeometry x="2246.24" y="20" width="265" height="40" as="geometry" />
        </mxCell>
        <mxCell id="KdF7l_LlImrHwwRQQBVm-235" style="edgeStyle=orthogonalEdgeStyle;rounded=0;orthogonalLoop=1;jettySize=auto;html=1;" parent="WIyWlLk6GJQsqaUBKTNV-1" source="KdF7l_LlImrHwwRQQBVm-127" target="KdF7l_LlImrHwwRQQBVm-234" edge="1">
          <mxGeometry relative="1" as="geometry" />
        </mxCell>
        <mxCell id="KdF7l_LlImrHwwRQQBVm-127" value="START" style="rounded=1;whiteSpace=wrap;html=1;" parent="WIyWlLk6GJQsqaUBKTNV-1" vertex="1">
          <mxGeometry x="2317.24" y="55" width="70" height="35" as="geometry" />
        </mxCell>
        <mxCell id="KdF7l_LlImrHwwRQQBVm-128" value="FINISH" style="rounded=1;whiteSpace=wrap;html=1;" parent="WIyWlLk6GJQsqaUBKTNV-1" vertex="1">
          <mxGeometry x="2816.24" y="967.5" width="70" height="35" as="geometry" />
        </mxCell>
        <mxCell id="KdF7l_LlImrHwwRQQBVm-143" style="edgeStyle=orthogonalEdgeStyle;rounded=0;orthogonalLoop=1;jettySize=auto;html=1;entryX=0.5;entryY=0;entryDx=0;entryDy=0;" parent="WIyWlLk6GJQsqaUBKTNV-1" source="KdF7l_LlImrHwwRQQBVm-129" target="KdF7l_LlImrHwwRQQBVm-131" edge="1">
          <mxGeometry relative="1" as="geometry" />
        </mxCell>
        <mxCell id="KdF7l_LlImrHwwRQQBVm-129" value="SERIAL COMUNICATION ON" style="rounded=0;whiteSpace=wrap;html=1;" parent="WIyWlLk6GJQsqaUBKTNV-1" vertex="1">
          <mxGeometry x="2277.24" y="170" width="150" height="40" as="geometry" />
        </mxCell>
        <mxCell id="KdF7l_LlImrHwwRQQBVm-134" value="" style="edgeStyle=orthogonalEdgeStyle;rounded=0;orthogonalLoop=1;jettySize=auto;html=1;" parent="WIyWlLk6GJQsqaUBKTNV-1" source="KdF7l_LlImrHwwRQQBVm-130" target="KdF7l_LlImrHwwRQQBVm-132" edge="1">
          <mxGeometry relative="1" as="geometry" />
        </mxCell>
        <mxCell id="KdF7l_LlImrHwwRQQBVm-130" value="SERIAL COMUNICATION OFF" style="rounded=0;whiteSpace=wrap;html=1;" parent="WIyWlLk6GJQsqaUBKTNV-1" vertex="1">
          <mxGeometry x="2277.24" y="290" width="150" height="40" as="geometry" />
        </mxCell>
        <mxCell id="KdF7l_LlImrHwwRQQBVm-142" style="edgeStyle=orthogonalEdgeStyle;rounded=0;orthogonalLoop=1;jettySize=auto;html=1;" parent="WIyWlLk6GJQsqaUBKTNV-1" source="KdF7l_LlImrHwwRQQBVm-131" target="KdF7l_LlImrHwwRQQBVm-130" edge="1">
          <mxGeometry relative="1" as="geometry" />
        </mxCell>
        <mxCell id="KdF7l_LlImrHwwRQQBVm-131" value="READ STRING RECEIVED" style="rounded=0;whiteSpace=wrap;html=1;" parent="WIyWlLk6GJQsqaUBKTNV-1" vertex="1">
          <mxGeometry x="2277.24" y="230" width="150" height="40" as="geometry" />
        </mxCell>
        <mxCell id="KdF7l_LlImrHwwRQQBVm-137" style="edgeStyle=orthogonalEdgeStyle;rounded=0;orthogonalLoop=1;jettySize=auto;html=1;" parent="WIyWlLk6GJQsqaUBKTNV-1" source="KdF7l_LlImrHwwRQQBVm-132" target="KdF7l_LlImrHwwRQQBVm-136" edge="1">
          <mxGeometry relative="1" as="geometry" />
        </mxCell>
        <mxCell id="KdF7l_LlImrHwwRQQBVm-145" style="edgeStyle=orthogonalEdgeStyle;rounded=0;orthogonalLoop=1;jettySize=auto;html=1;" parent="WIyWlLk6GJQsqaUBKTNV-1" source="KdF7l_LlImrHwwRQQBVm-132" target="KdF7l_LlImrHwwRQQBVm-138" edge="1">
          <mxGeometry relative="1" as="geometry" />
        </mxCell>
        <mxCell id="KdF7l_LlImrHwwRQQBVm-132" value="TIME RESEND&amp;nbsp;&lt;br&gt;POPPED?" style="rhombus;whiteSpace=wrap;html=1;shadow=0;fontFamily=Helvetica;fontSize=12;align=center;strokeWidth=1;spacing=6;spacingTop=-4;" parent="WIyWlLk6GJQsqaUBKTNV-1" vertex="1">
          <mxGeometry x="2290.24" y="350" width="124" height="90" as="geometry" />
        </mxCell>
        <mxCell id="KdF7l_LlImrHwwRQQBVm-148" style="edgeStyle=orthogonalEdgeStyle;rounded=0;orthogonalLoop=1;jettySize=auto;html=1;entryX=1;entryY=0;entryDx=0;entryDy=0;" parent="WIyWlLk6GJQsqaUBKTNV-1" source="KdF7l_LlImrHwwRQQBVm-136" target="KdF7l_LlImrHwwRQQBVm-138" edge="1">
          <mxGeometry relative="1" as="geometry">
            <Array as="points">
              <mxPoint x="2521.24" y="440" />
              <mxPoint x="2383.24" y="440" />
            </Array>
          </mxGeometry>
        </mxCell>
        <mxCell id="KdF7l_LlImrHwwRQQBVm-136" value="SYSTEM OF SEND LORA SIGNAL" style="shape=process;whiteSpace=wrap;html=1;backgroundOutline=1;" parent="WIyWlLk6GJQsqaUBKTNV-1" vertex="1">
          <mxGeometry x="2461.24" y="365" width="120" height="60" as="geometry" />
        </mxCell>
        <mxCell id="KdF7l_LlImrHwwRQQBVm-166" style="edgeStyle=orthogonalEdgeStyle;rounded=0;orthogonalLoop=1;jettySize=auto;html=1;" parent="WIyWlLk6GJQsqaUBKTNV-1" source="KdF7l_LlImrHwwRQQBVm-138" target="KdF7l_LlImrHwwRQQBVm-165" edge="1">
          <mxGeometry relative="1" as="geometry" />
        </mxCell>
        <mxCell id="KdF7l_LlImrHwwRQQBVm-188" style="edgeStyle=orthogonalEdgeStyle;rounded=0;orthogonalLoop=1;jettySize=auto;html=1;" parent="WIyWlLk6GJQsqaUBKTNV-1" source="KdF7l_LlImrHwwRQQBVm-138" target="KdF7l_LlImrHwwRQQBVm-187" edge="1">
          <mxGeometry relative="1" as="geometry" />
        </mxCell>
        <mxCell id="KdF7l_LlImrHwwRQQBVm-138" value="TOTAL &lt;br&gt;WAITING TIME&lt;br&gt;POPPED?" style="rhombus;whiteSpace=wrap;html=1;shadow=0;fontFamily=Helvetica;fontSize=12;align=center;strokeWidth=1;spacing=6;spacingTop=-4;" parent="WIyWlLk6GJQsqaUBKTNV-1" vertex="1">
          <mxGeometry x="2290.24" y="475" width="124" height="90" as="geometry" />
        </mxCell>
        <mxCell id="KdF7l_LlImrHwwRQQBVm-154" style="edgeStyle=orthogonalEdgeStyle;rounded=0;orthogonalLoop=1;jettySize=auto;html=1;entryX=1;entryY=0.5;entryDx=0;entryDy=0;" parent="WIyWlLk6GJQsqaUBKTNV-1" source="KdF7l_LlImrHwwRQQBVm-149" target="KdF7l_LlImrHwwRQQBVm-5" edge="1">
          <mxGeometry relative="1" as="geometry" />
        </mxCell>
        <mxCell id="KdF7l_LlImrHwwRQQBVm-149" value="DELAY (5S)" style="rounded=0;whiteSpace=wrap;html=1;" parent="WIyWlLk6GJQsqaUBKTNV-1" vertex="1">
          <mxGeometry x="1584.24" y="258.5" width="150" height="40" as="geometry" />
        </mxCell>
        <mxCell id="KdF7l_LlImrHwwRQQBVm-251" style="edgeStyle=orthogonalEdgeStyle;rounded=0;orthogonalLoop=1;jettySize=auto;html=1;entryX=0.5;entryY=0;entryDx=0;entryDy=0;" parent="WIyWlLk6GJQsqaUBKTNV-1" source="KdF7l_LlImrHwwRQQBVm-155" target="KdF7l_LlImrHwwRQQBVm-250" edge="1">
          <mxGeometry relative="1" as="geometry" />
        </mxCell>
        <mxCell id="KdF7l_LlImrHwwRQQBVm-155" value="GNSS IN STANDBY" style="rounded=0;whiteSpace=wrap;html=1;" parent="WIyWlLk6GJQsqaUBKTNV-1" vertex="1">
          <mxGeometry x="1584.24" y="443.5" width="150" height="40" as="geometry" />
        </mxCell>
        <mxCell id="KdF7l_LlImrHwwRQQBVm-161" value="&lt;font color=&quot;#ff0000&quot;&gt;NO&lt;/font&gt;" style="text;html=1;strokeColor=none;fillColor=none;align=center;verticalAlign=middle;whiteSpace=wrap;rounded=0;" parent="WIyWlLk6GJQsqaUBKTNV-1" vertex="1">
          <mxGeometry x="2296.24" y="435" width="60" height="30" as="geometry" />
        </mxCell>
        <mxCell id="KdF7l_LlImrHwwRQQBVm-162" value="&lt;font color=&quot;#00ff00&quot;&gt;YES&lt;/font&gt;" style="text;html=1;strokeColor=none;fillColor=none;align=center;verticalAlign=middle;whiteSpace=wrap;rounded=0;" parent="WIyWlLk6GJQsqaUBKTNV-1" vertex="1">
          <mxGeometry x="2401.24" y="365" width="60" height="30" as="geometry" />
        </mxCell>
        <mxCell id="KdF7l_LlImrHwwRQQBVm-163" value="&lt;font color=&quot;#00ff00&quot;&gt;YES&lt;/font&gt;" style="text;html=1;strokeColor=none;fillColor=none;align=center;verticalAlign=middle;whiteSpace=wrap;rounded=0;" parent="WIyWlLk6GJQsqaUBKTNV-1" vertex="1">
          <mxGeometry x="2401.24" y="485" width="60" height="30" as="geometry" />
        </mxCell>
        <mxCell id="KdF7l_LlImrHwwRQQBVm-173" style="edgeStyle=orthogonalEdgeStyle;rounded=0;orthogonalLoop=1;jettySize=auto;html=1;" parent="WIyWlLk6GJQsqaUBKTNV-1" source="KdF7l_LlImrHwwRQQBVm-165" edge="1">
          <mxGeometry relative="1" as="geometry">
            <mxPoint x="2626.24" y="520" as="targetPoint" />
          </mxGeometry>
        </mxCell>
        <mxCell id="KdF7l_LlImrHwwRQQBVm-178" style="edgeStyle=orthogonalEdgeStyle;rounded=0;orthogonalLoop=1;jettySize=auto;html=1;" parent="WIyWlLk6GJQsqaUBKTNV-1" source="KdF7l_LlImrHwwRQQBVm-165" edge="1">
          <mxGeometry relative="1" as="geometry">
            <mxPoint x="2531.74" y="610" as="targetPoint" />
          </mxGeometry>
        </mxCell>
        <mxCell id="KdF7l_LlImrHwwRQQBVm-165" value="LAT AND LON EX.&lt;br&gt;AND FLAG &lt;br&gt;TO D.L.D IS FALSE?" style="rhombus;whiteSpace=wrap;html=1;shadow=0;fontFamily=Helvetica;fontSize=12;align=center;strokeWidth=1;spacing=6;spacingTop=-4;" parent="WIyWlLk6GJQsqaUBKTNV-1" vertex="1">
          <mxGeometry x="2457.24" y="450" width="149" height="140" as="geometry" />
        </mxCell>
        <mxCell id="KdF7l_LlImrHwwRQQBVm-167" value="&lt;font color=&quot;#00ff00&quot;&gt;YES&lt;/font&gt;" style="text;html=1;strokeColor=none;fillColor=none;align=center;verticalAlign=middle;whiteSpace=wrap;rounded=0;" parent="WIyWlLk6GJQsqaUBKTNV-1" vertex="1">
          <mxGeometry x="2521.24" y="582.5" width="60" height="30" as="geometry" />
        </mxCell>
        <mxCell id="KdF7l_LlImrHwwRQQBVm-169" value="(SPIFFS)" style="shape=cylinder3;whiteSpace=wrap;html=1;boundedLbl=1;backgroundOutline=1;size=15;fillColor=#dae8fc;strokeColor=#6c8ebf;" parent="WIyWlLk6GJQsqaUBKTNV-1" vertex="1">
          <mxGeometry x="2502.24" y="680" width="60" height="80" as="geometry" />
        </mxCell>
        <mxCell id="KdF7l_LlImrHwwRQQBVm-171" value="&lt;font style=&quot;font-size: 10px;&quot;&gt;D.L.D = DELETE LAST DATA&lt;/font&gt;" style="text;html=1;strokeColor=none;fillColor=none;align=center;verticalAlign=middle;whiteSpace=wrap;rounded=0;" parent="WIyWlLk6GJQsqaUBKTNV-1" vertex="1">
          <mxGeometry x="2561.74" y="450" width="94.5" height="42.5" as="geometry" />
        </mxCell>
        <mxCell id="KdF7l_LlImrHwwRQQBVm-175" style="edgeStyle=orthogonalEdgeStyle;rounded=0;orthogonalLoop=1;jettySize=auto;html=1;entryX=0.5;entryY=0;entryDx=0;entryDy=0;" parent="WIyWlLk6GJQsqaUBKTNV-1" source="KdF7l_LlImrHwwRQQBVm-172" target="KdF7l_LlImrHwwRQQBVm-174" edge="1">
          <mxGeometry relative="1" as="geometry" />
        </mxCell>
        <mxCell id="KdF7l_LlImrHwwRQQBVm-185" style="edgeStyle=orthogonalEdgeStyle;rounded=0;orthogonalLoop=1;jettySize=auto;html=1;entryX=0;entryY=0.5;entryDx=0;entryDy=0;" parent="WIyWlLk6GJQsqaUBKTNV-1" source="KdF7l_LlImrHwwRQQBVm-172" target="KdF7l_LlImrHwwRQQBVm-184" edge="1">
          <mxGeometry relative="1" as="geometry" />
        </mxCell>
        <mxCell id="KdF7l_LlImrHwwRQQBVm-172" value="IS THE D.L.D TRUE?" style="rhombus;whiteSpace=wrap;html=1;shadow=0;fontFamily=Helvetica;fontSize=12;align=center;strokeWidth=1;spacing=6;spacingTop=-4;" parent="WIyWlLk6GJQsqaUBKTNV-1" vertex="1">
          <mxGeometry x="2626.74" y="475" width="124" height="90" as="geometry" />
        </mxCell>
        <mxCell id="KdF7l_LlImrHwwRQQBVm-174" value="PACKAGE RETURN TO MEMORY" style="rounded=0;whiteSpace=wrap;html=1;" parent="WIyWlLk6GJQsqaUBKTNV-1" vertex="1">
          <mxGeometry x="2613.74" y="585" width="150" height="40" as="geometry" />
        </mxCell>
        <mxCell id="KdF7l_LlImrHwwRQQBVm-179" style="edgeStyle=orthogonalEdgeStyle;rounded=0;orthogonalLoop=1;jettySize=auto;html=1;" parent="WIyWlLk6GJQsqaUBKTNV-1" source="KdF7l_LlImrHwwRQQBVm-177" target="KdF7l_LlImrHwwRQQBVm-169" edge="1">
          <mxGeometry relative="1" as="geometry" />
        </mxCell>
        <mxCell id="KdF7l_LlImrHwwRQQBVm-177" value="PACKAGE STORED&amp;nbsp;" style="rounded=0;whiteSpace=wrap;html=1;" parent="WIyWlLk6GJQsqaUBKTNV-1" vertex="1">
          <mxGeometry x="2457.24" y="615" width="150" height="40" as="geometry" />
        </mxCell>
        <mxCell id="KdF7l_LlImrHwwRQQBVm-180" value="&lt;font color=&quot;#ff0000&quot;&gt;NO&lt;/font&gt;" style="text;html=1;strokeColor=none;fillColor=none;align=center;verticalAlign=middle;whiteSpace=wrap;rounded=0;" parent="WIyWlLk6GJQsqaUBKTNV-1" vertex="1">
          <mxGeometry x="2586.24" y="492.5" width="60" height="30" as="geometry" />
        </mxCell>
        <mxCell id="KdF7l_LlImrHwwRQQBVm-181" value="&lt;font color=&quot;#00ff00&quot;&gt;YES&lt;/font&gt;" style="text;html=1;strokeColor=none;fillColor=none;align=center;verticalAlign=middle;whiteSpace=wrap;rounded=0;" parent="WIyWlLk6GJQsqaUBKTNV-1" vertex="1">
          <mxGeometry x="2686.24" y="560" width="60" height="30" as="geometry" />
        </mxCell>
        <mxCell id="KdF7l_LlImrHwwRQQBVm-182" style="edgeStyle=orthogonalEdgeStyle;rounded=0;orthogonalLoop=1;jettySize=auto;html=1;entryX=0.5;entryY=0;entryDx=0;entryDy=0;entryPerimeter=0;" parent="WIyWlLk6GJQsqaUBKTNV-1" source="KdF7l_LlImrHwwRQQBVm-174" edge="1">
          <mxGeometry relative="1" as="geometry">
            <mxPoint x="2688.74" y="647.5" as="targetPoint" />
          </mxGeometry>
        </mxCell>
        <mxCell id="KdF7l_LlImrHwwRQQBVm-183" value="(SPIFFS)" style="shape=cylinder3;whiteSpace=wrap;html=1;boundedLbl=1;backgroundOutline=1;size=15;fillColor=#dae8fc;strokeColor=#6c8ebf;" parent="WIyWlLk6GJQsqaUBKTNV-1" vertex="1">
          <mxGeometry x="2658.74" y="650" width="60" height="80" as="geometry" />
        </mxCell>
        <mxCell id="KdF7l_LlImrHwwRQQBVm-247" style="edgeStyle=orthogonalEdgeStyle;rounded=0;orthogonalLoop=1;jettySize=auto;html=1;" parent="WIyWlLk6GJQsqaUBKTNV-1" source="KdF7l_LlImrHwwRQQBVm-184" target="KdF7l_LlImrHwwRQQBVm-128" edge="1">
          <mxGeometry relative="1" as="geometry" />
        </mxCell>
        <mxCell id="KdF7l_LlImrHwwRQQBVm-184" value="PACKAGE DO NOT STORED (LAT AND LON OFF)" style="rounded=0;whiteSpace=wrap;html=1;" parent="WIyWlLk6GJQsqaUBKTNV-1" vertex="1">
          <mxGeometry x="2776.24" y="500" width="150" height="40" as="geometry" />
        </mxCell>
        <mxCell id="KdF7l_LlImrHwwRQQBVm-186" value="&lt;font color=&quot;#ff0000&quot;&gt;NO&lt;/font&gt;" style="text;html=1;strokeColor=none;fillColor=none;align=center;verticalAlign=middle;whiteSpace=wrap;rounded=0;" parent="WIyWlLk6GJQsqaUBKTNV-1" vertex="1">
          <mxGeometry x="2726.24" y="492.5" width="60" height="30" as="geometry" />
        </mxCell>
        <mxCell id="KdF7l_LlImrHwwRQQBVm-189" style="edgeStyle=orthogonalEdgeStyle;rounded=0;orthogonalLoop=1;jettySize=auto;html=1;entryX=0;entryY=0.5;entryDx=0;entryDy=0;" parent="WIyWlLk6GJQsqaUBKTNV-1" source="KdF7l_LlImrHwwRQQBVm-187" target="KdF7l_LlImrHwwRQQBVm-129" edge="1">
          <mxGeometry relative="1" as="geometry">
            <Array as="points">
              <mxPoint x="2256.24" y="635" />
              <mxPoint x="2256.24" y="400" />
              <mxPoint x="2257.24" y="400" />
              <mxPoint x="2257.24" y="190" />
            </Array>
          </mxGeometry>
        </mxCell>
        <mxCell id="KdF7l_LlImrHwwRQQBVm-193" style="edgeStyle=orthogonalEdgeStyle;rounded=0;orthogonalLoop=1;jettySize=auto;html=1;" parent="WIyWlLk6GJQsqaUBKTNV-1" source="KdF7l_LlImrHwwRQQBVm-187" target="KdF7l_LlImrHwwRQQBVm-192" edge="1">
          <mxGeometry relative="1" as="geometry" />
        </mxCell>
        <mxCell id="KdF7l_LlImrHwwRQQBVm-187" value="STRING READ EXIST?" style="rhombus;whiteSpace=wrap;html=1;shadow=0;fontFamily=Helvetica;fontSize=12;align=center;strokeWidth=1;spacing=6;spacingTop=-4;" parent="WIyWlLk6GJQsqaUBKTNV-1" vertex="1">
          <mxGeometry x="2290.24" y="590" width="124" height="90" as="geometry" />
        </mxCell>
        <mxCell id="KdF7l_LlImrHwwRQQBVm-190" value="&lt;font color=&quot;#ff0000&quot;&gt;NO&lt;/font&gt;" style="text;html=1;strokeColor=none;fillColor=none;align=center;verticalAlign=middle;whiteSpace=wrap;rounded=0;" parent="WIyWlLk6GJQsqaUBKTNV-1" vertex="1">
          <mxGeometry x="2266.24" y="600" width="60" height="30" as="geometry" />
        </mxCell>
        <mxCell id="KdF7l_LlImrHwwRQQBVm-191" value="&lt;font color=&quot;#00ff00&quot;&gt;YES&lt;/font&gt;" style="text;html=1;strokeColor=none;fillColor=none;align=center;verticalAlign=middle;whiteSpace=wrap;rounded=0;" parent="WIyWlLk6GJQsqaUBKTNV-1" vertex="1">
          <mxGeometry x="2348.74" y="680" width="60" height="30" as="geometry" />
        </mxCell>
        <mxCell id="KdF7l_LlImrHwwRQQBVm-198" style="edgeStyle=orthogonalEdgeStyle;rounded=0;orthogonalLoop=1;jettySize=auto;html=1;strokeColor=default;strokeWidth=1;endArrow=none;endFill=0;" parent="WIyWlLk6GJQsqaUBKTNV-1" source="KdF7l_LlImrHwwRQQBVm-192" edge="1">
          <mxGeometry relative="1" as="geometry">
            <mxPoint x="2256.24" y="630" as="targetPoint" />
          </mxGeometry>
        </mxCell>
        <mxCell id="KdF7l_LlImrHwwRQQBVm-201" style="edgeStyle=orthogonalEdgeStyle;rounded=0;orthogonalLoop=1;jettySize=auto;html=1;" parent="WIyWlLk6GJQsqaUBKTNV-1" source="KdF7l_LlImrHwwRQQBVm-192" target="KdF7l_LlImrHwwRQQBVm-200" edge="1">
          <mxGeometry relative="1" as="geometry" />
        </mxCell>
        <mxCell id="KdF7l_LlImrHwwRQQBVm-192" value="IS THE &lt;br&gt;STRING&amp;nbsp; &quot;OK&quot; ?" style="rhombus;whiteSpace=wrap;html=1;shadow=0;fontFamily=Helvetica;fontSize=12;align=center;strokeWidth=1;spacing=6;spacingTop=-4;" parent="WIyWlLk6GJQsqaUBKTNV-1" vertex="1">
          <mxGeometry x="2290.24" y="710" width="124" height="90" as="geometry" />
        </mxCell>
        <mxCell id="KdF7l_LlImrHwwRQQBVm-194" value="&lt;font color=&quot;#00ff00&quot;&gt;YES&lt;/font&gt;" style="text;html=1;strokeColor=none;fillColor=none;align=center;verticalAlign=middle;whiteSpace=wrap;rounded=0;" parent="WIyWlLk6GJQsqaUBKTNV-1" vertex="1">
          <mxGeometry x="2348.74" y="800" width="60" height="30" as="geometry" />
        </mxCell>
        <mxCell id="KdF7l_LlImrHwwRQQBVm-195" value="&lt;font color=&quot;#ff0000&quot;&gt;NO&lt;/font&gt;" style="text;html=1;strokeColor=none;fillColor=none;align=center;verticalAlign=middle;whiteSpace=wrap;rounded=0;" parent="WIyWlLk6GJQsqaUBKTNV-1" vertex="1">
          <mxGeometry x="2257.24" y="715" width="60" height="30" as="geometry" />
        </mxCell>
        <mxCell id="KdF7l_LlImrHwwRQQBVm-207" style="edgeStyle=orthogonalEdgeStyle;rounded=0;orthogonalLoop=1;jettySize=auto;html=1;entryX=0;entryY=0.5;entryDx=0;entryDy=0;" parent="WIyWlLk6GJQsqaUBKTNV-1" source="KdF7l_LlImrHwwRQQBVm-200" target="KdF7l_LlImrHwwRQQBVm-206" edge="1">
          <mxGeometry relative="1" as="geometry" />
        </mxCell>
        <mxCell id="KdF7l_LlImrHwwRQQBVm-209" style="edgeStyle=orthogonalEdgeStyle;rounded=0;orthogonalLoop=1;jettySize=auto;html=1;" parent="WIyWlLk6GJQsqaUBKTNV-1" source="KdF7l_LlImrHwwRQQBVm-200" target="KdF7l_LlImrHwwRQQBVm-208" edge="1">
          <mxGeometry relative="1" as="geometry" />
        </mxCell>
        <mxCell id="KdF7l_LlImrHwwRQQBVm-200" value="IS THE FLAG &lt;br&gt;D.L.D&amp;nbsp; TRUE?" style="rhombus;whiteSpace=wrap;html=1;shadow=0;fontFamily=Helvetica;fontSize=12;align=center;strokeWidth=1;spacing=6;spacingTop=-4;" parent="WIyWlLk6GJQsqaUBKTNV-1" vertex="1">
          <mxGeometry x="2290.24" y="825" width="124" height="90" as="geometry" />
        </mxCell>
        <mxCell id="KdF7l_LlImrHwwRQQBVm-206" value="DELETE LAST PACKAGE STORED" style="rounded=0;whiteSpace=wrap;html=1;" parent="WIyWlLk6GJQsqaUBKTNV-1" vertex="1">
          <mxGeometry x="2436.24" y="850" width="150" height="40" as="geometry" />
        </mxCell>
        <mxCell id="KdF7l_LlImrHwwRQQBVm-212" style="edgeStyle=orthogonalEdgeStyle;rounded=0;orthogonalLoop=1;jettySize=auto;html=1;" parent="WIyWlLk6GJQsqaUBKTNV-1" source="KdF7l_LlImrHwwRQQBVm-208" target="KdF7l_LlImrHwwRQQBVm-210" edge="1">
          <mxGeometry relative="1" as="geometry" />
        </mxCell>
        <mxCell id="y-wZkIsJVl8CtrZp_BYa-11" style="edgeStyle=orthogonalEdgeStyle;rounded=0;orthogonalLoop=1;jettySize=auto;html=1;entryX=0.5;entryY=1;entryDx=0;entryDy=0;exitX=0.5;exitY=1;exitDx=0;exitDy=0;" parent="WIyWlLk6GJQsqaUBKTNV-1" source="KdF7l_LlImrHwwRQQBVm-208" target="KdF7l_LlImrHwwRQQBVm-241" edge="1">
          <mxGeometry relative="1" as="geometry" />
        </mxCell>
        <mxCell id="KdF7l_LlImrHwwRQQBVm-208" value="IS THE SIGNAL&amp;nbsp; &amp;nbsp;GOOD?" style="rhombus;whiteSpace=wrap;html=1;shadow=0;fontFamily=Helvetica;fontSize=12;align=center;strokeWidth=1;spacing=6;spacingTop=-4;" parent="WIyWlLk6GJQsqaUBKTNV-1" vertex="1">
          <mxGeometry x="2290.24" y="940" width="124" height="90" as="geometry" />
        </mxCell>
        <mxCell id="KdF7l_LlImrHwwRQQBVm-224" style="edgeStyle=orthogonalEdgeStyle;rounded=0;orthogonalLoop=1;jettySize=auto;html=1;" parent="WIyWlLk6GJQsqaUBKTNV-1" source="KdF7l_LlImrHwwRQQBVm-210" edge="1">
          <mxGeometry relative="1" as="geometry">
            <mxPoint x="2386.2400000000007" y="1090" as="targetPoint" />
          </mxGeometry>
        </mxCell>
        <mxCell id="KdF7l_LlImrHwwRQQBVm-242" style="edgeStyle=orthogonalEdgeStyle;rounded=0;orthogonalLoop=1;jettySize=auto;html=1;" parent="WIyWlLk6GJQsqaUBKTNV-1" source="KdF7l_LlImrHwwRQQBVm-210" target="KdF7l_LlImrHwwRQQBVm-241" edge="1">
          <mxGeometry relative="1" as="geometry" />
        </mxCell>
        <mxCell id="KdF7l_LlImrHwwRQQBVm-210" value="IS THERE A PACKAGE IN MEMORY?" style="rhombus;whiteSpace=wrap;html=1;shadow=0;fontFamily=Helvetica;fontSize=12;align=center;strokeWidth=1;spacing=6;spacingTop=-4;" parent="WIyWlLk6GJQsqaUBKTNV-1" vertex="1">
          <mxGeometry x="2447.74" y="935" width="127" height="100" as="geometry" />
        </mxCell>
        <mxCell id="KdF7l_LlImrHwwRQQBVm-213" value="&lt;font color=&quot;#00ff00&quot;&gt;YES&lt;/font&gt;" style="text;html=1;strokeColor=none;fillColor=none;align=center;verticalAlign=middle;whiteSpace=wrap;rounded=0;" parent="WIyWlLk6GJQsqaUBKTNV-1" vertex="1">
          <mxGeometry x="2384.24" y="835" width="60" height="30" as="geometry" />
        </mxCell>
        <mxCell id="KdF7l_LlImrHwwRQQBVm-215" value="&lt;font color=&quot;#ff0000&quot;&gt;NO&lt;/font&gt;" style="text;html=1;strokeColor=none;fillColor=none;align=center;verticalAlign=middle;whiteSpace=wrap;rounded=0;" parent="WIyWlLk6GJQsqaUBKTNV-1" vertex="1">
          <mxGeometry x="2341.24" y="910" width="60" height="30" as="geometry" />
        </mxCell>
        <mxCell id="KdF7l_LlImrHwwRQQBVm-216" style="edgeStyle=orthogonalEdgeStyle;rounded=0;orthogonalLoop=1;jettySize=auto;html=1;entryX=0.776;entryY=0.285;entryDx=0;entryDy=0;entryPerimeter=0;" parent="WIyWlLk6GJQsqaUBKTNV-1" source="KdF7l_LlImrHwwRQQBVm-206" target="KdF7l_LlImrHwwRQQBVm-208" edge="1">
          <mxGeometry relative="1" as="geometry">
            <Array as="points">
              <mxPoint x="2511.24" y="920" />
              <mxPoint x="2386.24" y="920" />
            </Array>
          </mxGeometry>
        </mxCell>
        <mxCell id="KdF7l_LlImrHwwRQQBVm-217" value="&lt;font color=&quot;#ff0000&quot;&gt;NO&lt;/font&gt;" style="text;html=1;strokeColor=none;fillColor=none;align=center;verticalAlign=middle;whiteSpace=wrap;rounded=0;" parent="WIyWlLk6GJQsqaUBKTNV-1" vertex="1">
          <mxGeometry x="2356.24" y="1020" width="60" height="30" as="geometry" />
        </mxCell>
        <mxCell id="KdF7l_LlImrHwwRQQBVm-218" value="&lt;font color=&quot;#00ff00&quot;&gt;YES&lt;/font&gt;" style="text;html=1;strokeColor=none;fillColor=none;align=center;verticalAlign=middle;whiteSpace=wrap;rounded=0;" parent="WIyWlLk6GJQsqaUBKTNV-1" vertex="1">
          <mxGeometry x="2396.24" y="955" width="60" height="30" as="geometry" />
        </mxCell>
        <mxCell id="KdF7l_LlImrHwwRQQBVm-220" value="&lt;font color=&quot;#ff0000&quot;&gt;NO&lt;/font&gt;" style="text;html=1;strokeColor=none;fillColor=none;align=center;verticalAlign=middle;whiteSpace=wrap;rounded=0;" parent="WIyWlLk6GJQsqaUBKTNV-1" vertex="1">
          <mxGeometry x="2553.74" y="955" width="60" height="30" as="geometry" />
        </mxCell>
        <mxCell id="KdF7l_LlImrHwwRQQBVm-221" value="&lt;font color=&quot;#00ff00&quot;&gt;YES&lt;/font&gt;" style="text;html=1;strokeColor=none;fillColor=none;align=center;verticalAlign=middle;whiteSpace=wrap;rounded=0;" parent="WIyWlLk6GJQsqaUBKTNV-1" vertex="1">
          <mxGeometry x="2511.24" y="1020" width="60" height="30" as="geometry" />
        </mxCell>
        <mxCell id="KdF7l_LlImrHwwRQQBVm-228" style="edgeStyle=orthogonalEdgeStyle;rounded=0;orthogonalLoop=1;jettySize=auto;html=1;entryX=0;entryY=0.5;entryDx=0;entryDy=0;" parent="WIyWlLk6GJQsqaUBKTNV-1" edge="1">
          <mxGeometry relative="1" as="geometry">
            <mxPoint x="2541.24" y="1110" as="sourcePoint" />
            <mxPoint x="2562.24" y="1110" as="targetPoint" />
          </mxGeometry>
        </mxCell>
        <mxCell id="KdF7l_LlImrHwwRQQBVm-222" value="(SPIFFS)" style="shape=cylinder3;whiteSpace=wrap;html=1;boundedLbl=1;backgroundOutline=1;size=15;fillColor=#dae8fc;strokeColor=#6c8ebf;" parent="WIyWlLk6GJQsqaUBKTNV-1" vertex="1">
          <mxGeometry x="2274.24" y="1089" width="60" height="80" as="geometry" />
        </mxCell>
        <mxCell id="KdF7l_LlImrHwwRQQBVm-223" value="GET THE ULTIMATE PACKAGE" style="rounded=0;whiteSpace=wrap;html=1;" parent="WIyWlLk6GJQsqaUBKTNV-1" vertex="1">
          <mxGeometry x="2104.24" y="1109" width="150" height="40" as="geometry" />
        </mxCell>
        <mxCell id="y-wZkIsJVl8CtrZp_BYa-5" style="edgeStyle=orthogonalEdgeStyle;rounded=0;orthogonalLoop=1;jettySize=auto;html=1;exitX=1;exitY=0.5;exitDx=0;exitDy=0;entryX=0;entryY=0.5;entryDx=0;entryDy=0;" parent="WIyWlLk6GJQsqaUBKTNV-1" edge="1">
          <mxGeometry relative="1" as="geometry">
            <mxPoint x="2712.24" y="1110" as="sourcePoint" />
            <mxPoint x="2726.24" y="1110" as="targetPoint" />
          </mxGeometry>
        </mxCell>
        <mxCell id="KdF7l_LlImrHwwRQQBVm-226" value="FLAG D.L.D IS TRUE!" style="rounded=0;whiteSpace=wrap;html=1;" parent="WIyWlLk6GJQsqaUBKTNV-1" vertex="1">
          <mxGeometry x="2355.24" y="1109" width="150" height="40" as="geometry" />
        </mxCell>
        <mxCell id="KdF7l_LlImrHwwRQQBVm-227" style="edgeStyle=orthogonalEdgeStyle;rounded=0;orthogonalLoop=1;jettySize=auto;html=1;entryX=0;entryY=0.5;entryDx=0;entryDy=0;entryPerimeter=0;" parent="WIyWlLk6GJQsqaUBKTNV-1" edge="1">
          <mxGeometry relative="1" as="geometry">
            <mxPoint x="2461.24" y="1110" as="sourcePoint" />
            <mxPoint x="2481.24" y="1110" as="targetPoint" />
          </mxGeometry>
        </mxCell>
        <mxCell id="KdF7l_LlImrHwwRQQBVm-237" style="edgeStyle=orthogonalEdgeStyle;rounded=0;orthogonalLoop=1;jettySize=auto;html=1;entryX=0;entryY=0.5;entryDx=0;entryDy=0;" parent="WIyWlLk6GJQsqaUBKTNV-1" edge="1">
          <mxGeometry relative="1" as="geometry">
            <mxPoint x="2876.24" y="1110" as="sourcePoint" />
            <mxPoint x="2896.24" y="1110" as="targetPoint" />
          </mxGeometry>
        </mxCell>
        <mxCell id="KdF7l_LlImrHwwRQQBVm-229" value="DELAY TO DEBUG GATWAY (1S)" style="rounded=0;whiteSpace=wrap;html=1;" parent="WIyWlLk6GJQsqaUBKTNV-1" vertex="1">
          <mxGeometry x="2519.24" y="1109" width="150" height="40" as="geometry" />
        </mxCell>
        <mxCell id="y-wZkIsJVl8CtrZp_BYa-6" style="edgeStyle=orthogonalEdgeStyle;rounded=0;orthogonalLoop=1;jettySize=auto;html=1;" parent="WIyWlLk6GJQsqaUBKTNV-1" target="KdF7l_LlImrHwwRQQBVm-232" edge="1">
          <mxGeometry relative="1" as="geometry">
            <mxPoint x="2971.2400000000007" y="1090" as="sourcePoint" />
          </mxGeometry>
        </mxCell>
        <mxCell id="KdF7l_LlImrHwwRQQBVm-231" value="PREPARE THE STRING TO SEND" style="rounded=0;whiteSpace=wrap;html=1;" parent="WIyWlLk6GJQsqaUBKTNV-1" vertex="1">
          <mxGeometry x="2689.24" y="1109" width="150" height="40" as="geometry" />
        </mxCell>
        <mxCell id="y-wZkIsJVl8CtrZp_BYa-12" style="edgeStyle=orthogonalEdgeStyle;rounded=0;orthogonalLoop=1;jettySize=auto;html=1;entryX=1;entryY=0.5;entryDx=0;entryDy=0;" parent="WIyWlLk6GJQsqaUBKTNV-1" source="KdF7l_LlImrHwwRQQBVm-232" target="KdF7l_LlImrHwwRQQBVm-234" edge="1">
          <mxGeometry relative="1" as="geometry">
            <Array as="points">
              <mxPoint x="2971.24" y="130" />
            </Array>
          </mxGeometry>
        </mxCell>
        <mxCell id="KdF7l_LlImrHwwRQQBVm-232" value="SYSTEM OF SEND LORA SIGNAL" style="shape=process;whiteSpace=wrap;html=1;backgroundOutline=1;" parent="WIyWlLk6GJQsqaUBKTNV-1" vertex="1">
          <mxGeometry x="2911.24" y="1000" width="120" height="60" as="geometry" />
        </mxCell>
        <mxCell id="KdF7l_LlImrHwwRQQBVm-236" style="edgeStyle=orthogonalEdgeStyle;rounded=0;orthogonalLoop=1;jettySize=auto;html=1;entryX=0.5;entryY=0;entryDx=0;entryDy=0;" parent="WIyWlLk6GJQsqaUBKTNV-1" source="KdF7l_LlImrHwwRQQBVm-234" target="KdF7l_LlImrHwwRQQBVm-129" edge="1">
          <mxGeometry relative="1" as="geometry" />
        </mxCell>
        <mxCell id="KdF7l_LlImrHwwRQQBVm-234" value="CONFIGURATION TIMES FOR THIS PROCESS" style="rounded=0;whiteSpace=wrap;html=1;" parent="WIyWlLk6GJQsqaUBKTNV-1" vertex="1">
          <mxGeometry x="2277.24" y="110" width="150" height="40" as="geometry" />
        </mxCell>
        <mxCell id="KdF7l_LlImrHwwRQQBVm-248" style="edgeStyle=orthogonalEdgeStyle;rounded=0;orthogonalLoop=1;jettySize=auto;html=1;entryX=0;entryY=0.5;entryDx=0;entryDy=0;" parent="WIyWlLk6GJQsqaUBKTNV-1" source="KdF7l_LlImrHwwRQQBVm-241" target="KdF7l_LlImrHwwRQQBVm-128" edge="1">
          <mxGeometry relative="1" as="geometry" />
        </mxCell>
        <mxCell id="KdF7l_LlImrHwwRQQBVm-241" value="FLAG D.L.D IS FALSE!" style="rounded=0;whiteSpace=wrap;html=1;" parent="WIyWlLk6GJQsqaUBKTNV-1" vertex="1">
          <mxGeometry x="2600.74" y="965" width="150" height="40" as="geometry" />
        </mxCell>
        <mxCell id="KdF7l_LlImrHwwRQQBVm-252" style="edgeStyle=orthogonalEdgeStyle;rounded=0;orthogonalLoop=1;jettySize=auto;html=1;" parent="WIyWlLk6GJQsqaUBKTNV-1" source="KdF7l_LlImrHwwRQQBVm-250" target="KdF7l_LlImrHwwRQQBVm-101" edge="1">
          <mxGeometry relative="1" as="geometry" />
        </mxCell>
        <mxCell id="KdF7l_LlImrHwwRQQBVm-250" value="SHT21 AND ADX245 OFF" style="rounded=0;whiteSpace=wrap;html=1;" parent="WIyWlLk6GJQsqaUBKTNV-1" vertex="1">
          <mxGeometry x="1584.24" y="498.5" width="150" height="40" as="geometry" />
        </mxCell>
        <mxCell id="y-wZkIsJVl8CtrZp_BYa-0" value="&lt;h1&gt;Gateway&lt;/h1&gt;THE GATEWAY IS THE PART THAN STAY FIXED WITH A ANTENNA TO ASSEGURE THE CONECTIONS BEETWEN THE DEVICE WITH THE INTERNET&lt;p&gt;THIS IS ALL PARTS OF THE GATWAY. THE SYSTEM HAS DIVIDER IN INITIALIZATION, SETUP AND LOOP.&lt;/p&gt;&lt;p&gt;THE SYSTEM WAS DEVELOPER WITH FREERTOS, AND THEN DO NOT HAVE LOOP, THE TASKS DIVIDE THE TWO NUCLEOS ON YOUR EXECUTION.&lt;/p&gt;&lt;p&gt;&lt;br&gt;&lt;/p&gt;" style="text;html=1;strokeColor=none;fillColor=none;spacing=5;spacingTop=-20;whiteSpace=wrap;overflow=hidden;rounded=0;" parent="WIyWlLk6GJQsqaUBKTNV-1" vertex="1">
          <mxGeometry x="30" y="1190" width="190" height="320" as="geometry" />
        </mxCell>
        <mxCell id="y-wZkIsJVl8CtrZp_BYa-1" value="" style="shape=link;html=1;rounded=0;" parent="WIyWlLk6GJQsqaUBKTNV-1" edge="1">
          <mxGeometry width="100" relative="1" as="geometry">
            <mxPoint x="11" y="1169" as="sourcePoint" />
            <mxPoint x="3300" y="1169" as="targetPoint" />
          </mxGeometry>
        </mxCell>
        <mxCell id="y-wZkIsJVl8CtrZp_BYa-14" style="edgeStyle=orthogonalEdgeStyle;rounded=0;orthogonalLoop=1;jettySize=auto;html=1;" parent="WIyWlLk6GJQsqaUBKTNV-1" source="y-wZkIsJVl8CtrZp_BYa-15" target="y-wZkIsJVl8CtrZp_BYa-35" edge="1">
          <mxGeometry relative="1" as="geometry" />
        </mxCell>
        <mxCell id="y-wZkIsJVl8CtrZp_BYa-15" value="INITIALIZATION" style="shape=process;whiteSpace=wrap;html=1;backgroundOutline=1;" parent="WIyWlLk6GJQsqaUBKTNV-1" vertex="1">
          <mxGeometry x="267.13" y="1230" width="120" height="60" as="geometry" />
        </mxCell>
        <mxCell id="y-wZkIsJVl8CtrZp_BYa-16" style="edgeStyle=orthogonalEdgeStyle;rounded=0;orthogonalLoop=1;jettySize=auto;html=1;exitX=0.5;exitY=1;exitDx=0;exitDy=0;entryX=0.5;entryY=0;entryDx=0;entryDy=0;" parent="WIyWlLk6GJQsqaUBKTNV-1" source="y-wZkIsJVl8CtrZp_BYa-17" target="y-wZkIsJVl8CtrZp_BYa-19" edge="1">
          <mxGeometry relative="1" as="geometry" />
        </mxCell>
        <mxCell id="y-wZkIsJVl8CtrZp_BYa-17" value="LIBRARY AND VARIABLE TO WIFI/MQTT" style="rounded=0;whiteSpace=wrap;html=1;" parent="WIyWlLk6GJQsqaUBKTNV-1" vertex="1">
          <mxGeometry x="447.13" y="1280" width="124" height="40" as="geometry" />
        </mxCell>
        <mxCell id="y-wZkIsJVl8CtrZp_BYa-58" style="edgeStyle=orthogonalEdgeStyle;rounded=0;orthogonalLoop=1;jettySize=auto;html=1;" parent="WIyWlLk6GJQsqaUBKTNV-1" source="y-wZkIsJVl8CtrZp_BYa-19" target="y-wZkIsJVl8CtrZp_BYa-29" edge="1">
          <mxGeometry relative="1" as="geometry" />
        </mxCell>
        <mxCell id="y-wZkIsJVl8CtrZp_BYa-19" value="LIBRARY AND VARIABLE TO LORA" style="rounded=0;whiteSpace=wrap;html=1;" parent="WIyWlLk6GJQsqaUBKTNV-1" vertex="1">
          <mxGeometry x="447.13" y="1340" width="124" height="40" as="geometry" />
        </mxCell>
        <mxCell id="y-wZkIsJVl8CtrZp_BYa-28" style="edgeStyle=orthogonalEdgeStyle;rounded=0;orthogonalLoop=1;jettySize=auto;html=1;" parent="WIyWlLk6GJQsqaUBKTNV-1" source="y-wZkIsJVl8CtrZp_BYa-29" target="y-wZkIsJVl8CtrZp_BYa-32" edge="1">
          <mxGeometry relative="1" as="geometry" />
        </mxCell>
        <mxCell id="y-wZkIsJVl8CtrZp_BYa-29" value="SYSTEM VARIABLES&amp;nbsp;" style="rounded=0;whiteSpace=wrap;html=1;" parent="WIyWlLk6GJQsqaUBKTNV-1" vertex="1">
          <mxGeometry x="447.13" y="1400" width="124" height="40" as="geometry" />
        </mxCell>
        <mxCell id="y-wZkIsJVl8CtrZp_BYa-30" style="edgeStyle=orthogonalEdgeStyle;rounded=0;orthogonalLoop=1;jettySize=auto;html=1;" parent="WIyWlLk6GJQsqaUBKTNV-1" source="y-wZkIsJVl8CtrZp_BYa-31" target="y-wZkIsJVl8CtrZp_BYa-17" edge="1">
          <mxGeometry relative="1" as="geometry" />
        </mxCell>
        <mxCell id="y-wZkIsJVl8CtrZp_BYa-31" value="ESP START" style="rounded=1;whiteSpace=wrap;html=1;" parent="WIyWlLk6GJQsqaUBKTNV-1" vertex="1">
          <mxGeometry x="473.63" y="1230" width="71" height="30" as="geometry" />
        </mxCell>
        <mxCell id="y-wZkIsJVl8CtrZp_BYa-32" value="FINISH" style="rounded=1;whiteSpace=wrap;html=1;" parent="WIyWlLk6GJQsqaUBKTNV-1" vertex="1">
          <mxGeometry x="466.13" y="1460" width="86" height="40" as="geometry" />
        </mxCell>
        <mxCell id="y-wZkIsJVl8CtrZp_BYa-33" value="INITIALIZATION" style="text;html=1;align=center;verticalAlign=middle;resizable=0;points=[];autosize=1;strokeColor=none;fillColor=none;" parent="WIyWlLk6GJQsqaUBKTNV-1" vertex="1">
          <mxGeometry x="447.13" y="1200" width="110" height="30" as="geometry" />
        </mxCell>
        <mxCell id="RyRYwEEPjjqfXFh2yq3J-15" style="edgeStyle=orthogonalEdgeStyle;rounded=0;orthogonalLoop=1;jettySize=auto;html=1;" parent="WIyWlLk6GJQsqaUBKTNV-1" source="y-wZkIsJVl8CtrZp_BYa-35" target="RyRYwEEPjjqfXFh2yq3J-7" edge="1">
          <mxGeometry relative="1" as="geometry" />
        </mxCell>
        <mxCell id="y-wZkIsJVl8CtrZp_BYa-35" value="SETUP" style="shape=process;whiteSpace=wrap;html=1;backgroundOutline=1;" parent="WIyWlLk6GJQsqaUBKTNV-1" vertex="1">
          <mxGeometry x="267.13" y="1310" width="120" height="60" as="geometry" />
        </mxCell>
        <mxCell id="y-wZkIsJVl8CtrZp_BYa-37" value="PROGRAM" style="text;html=1;align=center;verticalAlign=middle;resizable=0;points=[];autosize=1;strokeColor=none;fillColor=none;" parent="WIyWlLk6GJQsqaUBKTNV-1" vertex="1">
          <mxGeometry x="282.13" y="1200" width="90" height="30" as="geometry" />
        </mxCell>
        <mxCell id="y-wZkIsJVl8CtrZp_BYa-38" style="edgeStyle=orthogonalEdgeStyle;rounded=0;orthogonalLoop=1;jettySize=auto;html=1;exitX=0.5;exitY=1;exitDx=0;exitDy=0;" parent="WIyWlLk6GJQsqaUBKTNV-1" source="y-wZkIsJVl8CtrZp_BYa-39" target="y-wZkIsJVl8CtrZp_BYa-41" edge="1">
          <mxGeometry relative="1" as="geometry" />
        </mxCell>
        <mxCell id="y-wZkIsJVl8CtrZp_BYa-39" value="STARTVOID SETUP" style="rounded=1;whiteSpace=wrap;html=1;" parent="WIyWlLk6GJQsqaUBKTNV-1" vertex="1">
          <mxGeometry x="661.13" y="1230" width="71" height="30" as="geometry" />
        </mxCell>
        <mxCell id="y-wZkIsJVl8CtrZp_BYa-40" style="edgeStyle=orthogonalEdgeStyle;rounded=0;orthogonalLoop=1;jettySize=auto;html=1;exitX=0.5;exitY=1;exitDx=0;exitDy=0;entryX=0.5;entryY=0;entryDx=0;entryDy=0;" parent="WIyWlLk6GJQsqaUBKTNV-1" source="y-wZkIsJVl8CtrZp_BYa-41" target="y-wZkIsJVl8CtrZp_BYa-43" edge="1">
          <mxGeometry relative="1" as="geometry" />
        </mxCell>
        <mxCell id="y-wZkIsJVl8CtrZp_BYa-41" value="PIN DEFINATIONS" style="rounded=0;whiteSpace=wrap;html=1;" parent="WIyWlLk6GJQsqaUBKTNV-1" vertex="1">
          <mxGeometry x="634.63" y="1280" width="124" height="40" as="geometry" />
        </mxCell>
        <mxCell id="y-wZkIsJVl8CtrZp_BYa-42" style="edgeStyle=orthogonalEdgeStyle;rounded=0;orthogonalLoop=1;jettySize=auto;html=1;" parent="WIyWlLk6GJQsqaUBKTNV-1" source="y-wZkIsJVl8CtrZp_BYa-43" target="y-wZkIsJVl8CtrZp_BYa-51" edge="1">
          <mxGeometry relative="1" as="geometry" />
        </mxCell>
        <mxCell id="y-wZkIsJVl8CtrZp_BYa-43" value="PIN SENSOR LORA STATUS DEFINATIONS" style="rounded=0;whiteSpace=wrap;html=1;" parent="WIyWlLk6GJQsqaUBKTNV-1" vertex="1">
          <mxGeometry x="630.38" y="1340" width="132.5" height="40" as="geometry" />
        </mxCell>
        <mxCell id="RyRYwEEPjjqfXFh2yq3J-12" style="edgeStyle=orthogonalEdgeStyle;rounded=0;orthogonalLoop=1;jettySize=auto;html=1;" parent="WIyWlLk6GJQsqaUBKTNV-1" source="y-wZkIsJVl8CtrZp_BYa-47" target="RyRYwEEPjjqfXFh2yq3J-11" edge="1">
          <mxGeometry relative="1" as="geometry" />
        </mxCell>
        <mxCell id="y-wZkIsJVl8CtrZp_BYa-47" value="ARRIVE ADDRESS LORA MODULE" style="rounded=0;whiteSpace=wrap;html=1;" parent="WIyWlLk6GJQsqaUBKTNV-1" vertex="1">
          <mxGeometry x="634.63" y="1520" width="124" height="40" as="geometry" />
        </mxCell>
        <mxCell id="y-wZkIsJVl8CtrZp_BYa-48" value="FINSH VOID SETUP" style="rounded=1;whiteSpace=wrap;html=1;" parent="WIyWlLk6GJQsqaUBKTNV-1" vertex="1">
          <mxGeometry x="661.13" y="1830" width="71" height="30" as="geometry" />
        </mxCell>
        <mxCell id="y-wZkIsJVl8CtrZp_BYa-49" value="SETUP" style="text;html=1;align=center;verticalAlign=middle;resizable=0;points=[];autosize=1;strokeColor=none;fillColor=none;" parent="WIyWlLk6GJQsqaUBKTNV-1" vertex="1">
          <mxGeometry x="637.13" y="1200" width="60" height="30" as="geometry" />
        </mxCell>
        <mxCell id="y-wZkIsJVl8CtrZp_BYa-59" style="edgeStyle=orthogonalEdgeStyle;rounded=0;orthogonalLoop=1;jettySize=auto;html=1;" parent="WIyWlLk6GJQsqaUBKTNV-1" source="y-wZkIsJVl8CtrZp_BYa-51" target="y-wZkIsJVl8CtrZp_BYa-55" edge="1">
          <mxGeometry relative="1" as="geometry" />
        </mxCell>
        <mxCell id="y-wZkIsJVl8CtrZp_BYa-51" value="CONECTION WITH WIFI" style="rounded=0;whiteSpace=wrap;html=1;" parent="WIyWlLk6GJQsqaUBKTNV-1" vertex="1">
          <mxGeometry x="630.38" y="1400" width="132.5" height="40" as="geometry" />
        </mxCell>
        <mxCell id="y-wZkIsJVl8CtrZp_BYa-54" style="edgeStyle=orthogonalEdgeStyle;rounded=0;orthogonalLoop=1;jettySize=auto;html=1;entryX=0.5;entryY=0;entryDx=0;entryDy=0;" parent="WIyWlLk6GJQsqaUBKTNV-1" source="y-wZkIsJVl8CtrZp_BYa-55" target="y-wZkIsJVl8CtrZp_BYa-47" edge="1">
          <mxGeometry relative="1" as="geometry" />
        </mxCell>
        <mxCell id="y-wZkIsJVl8CtrZp_BYa-55" value="SENSOR LORA ON" style="rounded=0;whiteSpace=wrap;html=1;" parent="WIyWlLk6GJQsqaUBKTNV-1" vertex="1">
          <mxGeometry x="634.63" y="1460" width="124" height="40" as="geometry" />
        </mxCell>
        <mxCell id="BxCm3gYWdpMPkskWdbPp-5" style="edgeStyle=orthogonalEdgeStyle;rounded=0;orthogonalLoop=1;jettySize=auto;html=1;" parent="WIyWlLk6GJQsqaUBKTNV-1" source="y-wZkIsJVl8CtrZp_BYa-60" target="BxCm3gYWdpMPkskWdbPp-4" edge="1">
          <mxGeometry relative="1" as="geometry" />
        </mxCell>
        <mxCell id="y-wZkIsJVl8CtrZp_BYa-60" value="START TASK" style="rounded=1;whiteSpace=wrap;html=1;" parent="WIyWlLk6GJQsqaUBKTNV-1" vertex="1">
          <mxGeometry x="1523.47" y="1230" width="71" height="30" as="geometry" />
        </mxCell>
        <mxCell id="y-wZkIsJVl8CtrZp_BYa-61" value="Taks 3 - Wait LoRa Signal" style="text;html=1;align=center;verticalAlign=middle;resizable=0;points=[];autosize=1;strokeColor=none;fillColor=none;" parent="WIyWlLk6GJQsqaUBKTNV-1" vertex="1">
          <mxGeometry x="1487.72" y="1200" width="160" height="30" as="geometry" />
        </mxCell>
        <mxCell id="4tOl5EU3HxqWjF5FSPjR-7" style="edgeStyle=orthogonalEdgeStyle;rounded=0;orthogonalLoop=1;jettySize=auto;html=1;entryX=0.5;entryY=0;entryDx=0;entryDy=0;" parent="WIyWlLk6GJQsqaUBKTNV-1" source="y-wZkIsJVl8CtrZp_BYa-62" target="4tOl5EU3HxqWjF5FSPjR-6" edge="1">
          <mxGeometry relative="1" as="geometry" />
        </mxCell>
        <mxCell id="y-wZkIsJVl8CtrZp_BYa-62" value="PACKAGE RECEIVED?" style="rhombus;whiteSpace=wrap;html=1;shadow=0;fontFamily=Helvetica;fontSize=12;align=center;strokeWidth=1;spacing=6;spacingTop=-4;" parent="WIyWlLk6GJQsqaUBKTNV-1" vertex="1">
          <mxGeometry x="1496.97" y="1360" width="124" height="90" as="geometry" />
        </mxCell>
        <mxCell id="4tOl5EU3HxqWjF5FSPjR-3" style="edgeStyle=orthogonalEdgeStyle;rounded=0;orthogonalLoop=1;jettySize=auto;html=1;exitX=1;exitY=0.5;exitDx=0;exitDy=0;entryX=0.721;entryY=0.236;entryDx=0;entryDy=0;entryPerimeter=0;" parent="WIyWlLk6GJQsqaUBKTNV-1" source="y-wZkIsJVl8CtrZp_BYa-62" target="y-wZkIsJVl8CtrZp_BYa-62" edge="1">
          <mxGeometry relative="1" as="geometry">
            <Array as="points">
              <mxPoint x="1643" y="1410" />
              <mxPoint x="1643" y="1365" />
              <mxPoint x="1588" y="1365" />
            </Array>
          </mxGeometry>
        </mxCell>
        <mxCell id="4tOl5EU3HxqWjF5FSPjR-4" value="&lt;font color=&quot;#ff0000&quot;&gt;NO&lt;/font&gt;" style="text;html=1;strokeColor=none;fillColor=none;align=center;verticalAlign=middle;whiteSpace=wrap;rounded=0;" parent="WIyWlLk6GJQsqaUBKTNV-1" vertex="1">
          <mxGeometry x="1588.5" y="1340" width="60" height="30" as="geometry" />
        </mxCell>
        <mxCell id="4tOl5EU3HxqWjF5FSPjR-5" value="&lt;font color=&quot;#00ff00&quot;&gt;YES&lt;/font&gt;" style="text;html=1;strokeColor=none;fillColor=none;align=center;verticalAlign=middle;whiteSpace=wrap;rounded=0;" parent="WIyWlLk6GJQsqaUBKTNV-1" vertex="1">
          <mxGeometry x="1549" y="1445" width="60" height="30" as="geometry" />
        </mxCell>
        <mxCell id="4tOl5EU3HxqWjF5FSPjR-9" style="edgeStyle=orthogonalEdgeStyle;rounded=0;orthogonalLoop=1;jettySize=auto;html=1;" parent="WIyWlLk6GJQsqaUBKTNV-1" source="4tOl5EU3HxqWjF5FSPjR-6" target="4tOl5EU3HxqWjF5FSPjR-8" edge="1">
          <mxGeometry relative="1" as="geometry" />
        </mxCell>
        <mxCell id="4tOl5EU3HxqWjF5FSPjR-6" value="LORA UART OFF" style="rounded=0;whiteSpace=wrap;html=1;" parent="WIyWlLk6GJQsqaUBKTNV-1" vertex="1">
          <mxGeometry x="1494.75" y="1475" width="132.5" height="40" as="geometry" />
        </mxCell>
        <mxCell id="EJgq6c8C-I1xBVSZFz9V-0" style="edgeStyle=orthogonalEdgeStyle;rounded=0;orthogonalLoop=1;jettySize=auto;html=1;" parent="WIyWlLk6GJQsqaUBKTNV-1" source="4tOl5EU3HxqWjF5FSPjR-8" target="4tOl5EU3HxqWjF5FSPjR-25" edge="1">
          <mxGeometry relative="1" as="geometry" />
        </mxCell>
        <mxCell id="4tOl5EU3HxqWjF5FSPjR-8" value="OPEN THE PACKAGE" style="rounded=0;whiteSpace=wrap;html=1;" parent="WIyWlLk6GJQsqaUBKTNV-1" vertex="1">
          <mxGeometry x="1494.75" y="1535" width="132.5" height="40" as="geometry" />
        </mxCell>
        <mxCell id="4tOl5EU3HxqWjF5FSPjR-31" style="edgeStyle=orthogonalEdgeStyle;rounded=0;orthogonalLoop=1;jettySize=auto;html=1;entryX=0;entryY=0.5;entryDx=0;entryDy=0;" parent="WIyWlLk6GJQsqaUBKTNV-1" source="4tOl5EU3HxqWjF5FSPjR-25" target="4tOl5EU3HxqWjF5FSPjR-28" edge="1">
          <mxGeometry relative="1" as="geometry" />
        </mxCell>
        <mxCell id="4tOl5EU3HxqWjF5FSPjR-25" value="PACKAGE TO JSON FORMAT" style="shape=process;whiteSpace=wrap;html=1;backgroundOutline=1;" parent="WIyWlLk6GJQsqaUBKTNV-1" vertex="1">
          <mxGeometry x="1501" y="1595" width="120" height="60" as="geometry" />
        </mxCell>
        <mxCell id="4tOl5EU3HxqWjF5FSPjR-36" style="edgeStyle=orthogonalEdgeStyle;rounded=0;orthogonalLoop=1;jettySize=auto;html=1;" parent="WIyWlLk6GJQsqaUBKTNV-1" source="4tOl5EU3HxqWjF5FSPjR-28" target="4tOl5EU3HxqWjF5FSPjR-35" edge="1">
          <mxGeometry relative="1" as="geometry" />
        </mxCell>
        <mxCell id="4tOl5EU3HxqWjF5FSPjR-59" style="edgeStyle=orthogonalEdgeStyle;rounded=0;orthogonalLoop=1;jettySize=auto;html=1;" parent="WIyWlLk6GJQsqaUBKTNV-1" source="4tOl5EU3HxqWjF5FSPjR-28" target="4tOl5EU3HxqWjF5FSPjR-58" edge="1">
          <mxGeometry relative="1" as="geometry" />
        </mxCell>
        <mxCell id="4tOl5EU3HxqWjF5FSPjR-28" value="WIFI ANT MQTT OK?" style="rhombus;whiteSpace=wrap;html=1;shadow=0;fontFamily=Helvetica;fontSize=12;align=center;strokeWidth=1;spacing=6;spacingTop=-4;" parent="WIyWlLk6GJQsqaUBKTNV-1" vertex="1">
          <mxGeometry x="1644" y="1580" width="124" height="90" as="geometry" />
        </mxCell>
        <mxCell id="4tOl5EU3HxqWjF5FSPjR-33" value="&lt;font color=&quot;#ff0000&quot;&gt;NO&lt;/font&gt;" style="text;html=1;strokeColor=none;fillColor=none;align=center;verticalAlign=middle;whiteSpace=wrap;rounded=0;" parent="WIyWlLk6GJQsqaUBKTNV-1" vertex="1">
          <mxGeometry x="1705.5" y="1655" width="60" height="30" as="geometry" />
        </mxCell>
        <mxCell id="4tOl5EU3HxqWjF5FSPjR-34" value="&lt;font color=&quot;#00ff00&quot;&gt;YES&lt;/font&gt;" style="text;html=1;strokeColor=none;fillColor=none;align=center;verticalAlign=middle;whiteSpace=wrap;rounded=0;" parent="WIyWlLk6GJQsqaUBKTNV-1" vertex="1">
          <mxGeometry x="1756.5" y="1595" width="60" height="30" as="geometry" />
        </mxCell>
        <mxCell id="4tOl5EU3HxqWjF5FSPjR-38" style="edgeStyle=orthogonalEdgeStyle;rounded=0;orthogonalLoop=1;jettySize=auto;html=1;" parent="WIyWlLk6GJQsqaUBKTNV-1" source="4tOl5EU3HxqWjF5FSPjR-35" target="4tOl5EU3HxqWjF5FSPjR-37" edge="1">
          <mxGeometry relative="1" as="geometry" />
        </mxCell>
        <mxCell id="4tOl5EU3HxqWjF5FSPjR-35" value="SEND JSON TO BROKER" style="rounded=0;whiteSpace=wrap;html=1;" parent="WIyWlLk6GJQsqaUBKTNV-1" vertex="1">
          <mxGeometry x="1816.5" y="1605" width="124" height="40" as="geometry" />
        </mxCell>
        <mxCell id="4tOl5EU3HxqWjF5FSPjR-47" style="edgeStyle=orthogonalEdgeStyle;rounded=0;orthogonalLoop=1;jettySize=auto;html=1;" parent="WIyWlLk6GJQsqaUBKTNV-1" source="4tOl5EU3HxqWjF5FSPjR-37" target="4tOl5EU3HxqWjF5FSPjR-45" edge="1">
          <mxGeometry relative="1" as="geometry" />
        </mxCell>
        <mxCell id="4tOl5EU3HxqWjF5FSPjR-52" style="edgeStyle=orthogonalEdgeStyle;rounded=0;orthogonalLoop=1;jettySize=auto;html=1;" parent="WIyWlLk6GJQsqaUBKTNV-1" source="4tOl5EU3HxqWjF5FSPjR-37" target="4tOl5EU3HxqWjF5FSPjR-51" edge="1">
          <mxGeometry relative="1" as="geometry" />
        </mxCell>
        <mxCell id="4tOl5EU3HxqWjF5FSPjR-37" value="BROKER SEND CONFIRMATION?" style="rhombus;whiteSpace=wrap;html=1;shadow=0;fontFamily=Helvetica;fontSize=12;align=center;strokeWidth=1;spacing=6;spacingTop=-4;" parent="WIyWlLk6GJQsqaUBKTNV-1" vertex="1">
          <mxGeometry x="1955.5" y="1580" width="124" height="90" as="geometry" />
        </mxCell>
        <mxCell id="4tOl5EU3HxqWjF5FSPjR-40" value="&lt;font color=&quot;#ff0000&quot;&gt;NO&lt;/font&gt;" style="text;html=1;strokeColor=none;fillColor=none;align=center;verticalAlign=middle;whiteSpace=wrap;rounded=0;" parent="WIyWlLk6GJQsqaUBKTNV-1" vertex="1">
          <mxGeometry x="2017.5" y="1565" width="60" height="30" as="geometry" />
        </mxCell>
        <mxCell id="4tOl5EU3HxqWjF5FSPjR-44" value="&lt;font color=&quot;#00ff00&quot;&gt;YES&lt;/font&gt;" style="text;html=1;strokeColor=none;fillColor=none;align=center;verticalAlign=middle;whiteSpace=wrap;rounded=0;" parent="WIyWlLk6GJQsqaUBKTNV-1" vertex="1">
          <mxGeometry x="2017.5" y="1670" width="60" height="30" as="geometry" />
        </mxCell>
        <mxCell id="4tOl5EU3HxqWjF5FSPjR-53" style="edgeStyle=orthogonalEdgeStyle;rounded=0;orthogonalLoop=1;jettySize=auto;html=1;entryX=1;entryY=0.5;entryDx=0;entryDy=0;" parent="WIyWlLk6GJQsqaUBKTNV-1" source="4tOl5EU3HxqWjF5FSPjR-45" target="4tOl5EU3HxqWjF5FSPjR-51" edge="1">
          <mxGeometry relative="1" as="geometry">
            <Array as="points">
              <mxPoint x="2099" y="1735" />
              <mxPoint x="2099" y="1535" />
            </Array>
          </mxGeometry>
        </mxCell>
        <mxCell id="4tOl5EU3HxqWjF5FSPjR-45" value="SEND CONFIRMATION" style="shape=process;whiteSpace=wrap;html=1;backgroundOutline=1;" parent="WIyWlLk6GJQsqaUBKTNV-1" vertex="1">
          <mxGeometry x="1957.5" y="1705" width="120" height="60" as="geometry" />
        </mxCell>
        <mxCell id="4tOl5EU3HxqWjF5FSPjR-50" value="SEND CONFIRMATION" style="text;html=1;align=center;verticalAlign=middle;resizable=0;points=[];autosize=1;strokeColor=none;fillColor=none;" parent="WIyWlLk6GJQsqaUBKTNV-1" vertex="1">
          <mxGeometry x="1499" y="1810" width="150" height="30" as="geometry" />
        </mxCell>
        <mxCell id="4tOl5EU3HxqWjF5FSPjR-97" style="edgeStyle=orthogonalEdgeStyle;rounded=0;orthogonalLoop=1;jettySize=auto;html=1;entryX=1;entryY=1;entryDx=0;entryDy=0;" parent="WIyWlLk6GJQsqaUBKTNV-1" source="4tOl5EU3HxqWjF5FSPjR-51" target="y-wZkIsJVl8CtrZp_BYa-62" edge="1">
          <mxGeometry relative="1" as="geometry">
            <Array as="points">
              <mxPoint x="2018" y="1428" />
              <mxPoint x="1590" y="1428" />
            </Array>
          </mxGeometry>
        </mxCell>
        <mxCell id="4tOl5EU3HxqWjF5FSPjR-51" value="LORA UART ON" style="rounded=0;whiteSpace=wrap;html=1;" parent="WIyWlLk6GJQsqaUBKTNV-1" vertex="1">
          <mxGeometry x="1951.25" y="1515" width="132.5" height="40" as="geometry" />
        </mxCell>
        <mxCell id="4tOl5EU3HxqWjF5FSPjR-65" style="edgeStyle=orthogonalEdgeStyle;rounded=0;orthogonalLoop=1;jettySize=auto;html=1;" parent="WIyWlLk6GJQsqaUBKTNV-1" source="4tOl5EU3HxqWjF5FSPjR-55" target="4tOl5EU3HxqWjF5FSPjR-61" edge="1">
          <mxGeometry relative="1" as="geometry" />
        </mxCell>
        <mxCell id="4tOl5EU3HxqWjF5FSPjR-55" value="LORA UART ON" style="rounded=0;whiteSpace=wrap;html=1;" parent="WIyWlLk6GJQsqaUBKTNV-1" vertex="1">
          <mxGeometry x="1502.25" y="1910" width="132.5" height="40" as="geometry" />
        </mxCell>
        <mxCell id="4tOl5EU3HxqWjF5FSPjR-57" style="edgeStyle=orthogonalEdgeStyle;rounded=0;orthogonalLoop=1;jettySize=auto;html=1;" parent="WIyWlLk6GJQsqaUBKTNV-1" source="4tOl5EU3HxqWjF5FSPjR-56" target="4tOl5EU3HxqWjF5FSPjR-55" edge="1">
          <mxGeometry relative="1" as="geometry" />
        </mxCell>
        <mxCell id="4tOl5EU3HxqWjF5FSPjR-56" value="START" style="rounded=1;whiteSpace=wrap;html=1;" parent="WIyWlLk6GJQsqaUBKTNV-1" vertex="1">
          <mxGeometry x="1533" y="1850" width="71" height="30" as="geometry" />
        </mxCell>
        <mxCell id="4tOl5EU3HxqWjF5FSPjR-60" style="edgeStyle=orthogonalEdgeStyle;rounded=0;orthogonalLoop=1;jettySize=auto;html=1;entryX=0;entryY=1;entryDx=0;entryDy=0;" parent="WIyWlLk6GJQsqaUBKTNV-1" source="4tOl5EU3HxqWjF5FSPjR-58" target="4tOl5EU3HxqWjF5FSPjR-28" edge="1">
          <mxGeometry relative="1" as="geometry">
            <Array as="points">
              <mxPoint x="1632" y="1760" />
              <mxPoint x="1632" y="1648" />
            </Array>
          </mxGeometry>
        </mxCell>
        <mxCell id="4tOl5EU3HxqWjF5FSPjR-58" value="RECONNECT" style="rounded=0;whiteSpace=wrap;html=1;" parent="WIyWlLk6GJQsqaUBKTNV-1" vertex="1">
          <mxGeometry x="1644" y="1740" width="124" height="40" as="geometry" />
        </mxCell>
        <mxCell id="4tOl5EU3HxqWjF5FSPjR-66" style="edgeStyle=orthogonalEdgeStyle;rounded=0;orthogonalLoop=1;jettySize=auto;html=1;entryX=0.5;entryY=0;entryDx=0;entryDy=0;" parent="WIyWlLk6GJQsqaUBKTNV-1" source="4tOl5EU3HxqWjF5FSPjR-61" target="4tOl5EU3HxqWjF5FSPjR-62" edge="1">
          <mxGeometry relative="1" as="geometry" />
        </mxCell>
        <mxCell id="4tOl5EU3HxqWjF5FSPjR-61" value="PACKAGE THE MSG &quot;OK&quot;&amp;nbsp;" style="rounded=0;whiteSpace=wrap;html=1;" parent="WIyWlLk6GJQsqaUBKTNV-1" vertex="1">
          <mxGeometry x="1502.25" y="1970" width="132.5" height="40" as="geometry" />
        </mxCell>
        <mxCell id="4tOl5EU3HxqWjF5FSPjR-67" style="edgeStyle=orthogonalEdgeStyle;rounded=0;orthogonalLoop=1;jettySize=auto;html=1;" parent="WIyWlLk6GJQsqaUBKTNV-1" source="4tOl5EU3HxqWjF5FSPjR-62" target="4tOl5EU3HxqWjF5FSPjR-63" edge="1">
          <mxGeometry relative="1" as="geometry" />
        </mxCell>
        <mxCell id="4tOl5EU3HxqWjF5FSPjR-62" value="SEND THIS PACKATE TO LORA MODULE" style="rounded=0;whiteSpace=wrap;html=1;" parent="WIyWlLk6GJQsqaUBKTNV-1" vertex="1">
          <mxGeometry x="1502.25" y="2030" width="132.5" height="40" as="geometry" />
        </mxCell>
        <mxCell id="4tOl5EU3HxqWjF5FSPjR-68" style="edgeStyle=orthogonalEdgeStyle;rounded=0;orthogonalLoop=1;jettySize=auto;html=1;" parent="WIyWlLk6GJQsqaUBKTNV-1" source="4tOl5EU3HxqWjF5FSPjR-63" target="4tOl5EU3HxqWjF5FSPjR-64" edge="1">
          <mxGeometry relative="1" as="geometry" />
        </mxCell>
        <mxCell id="4tOl5EU3HxqWjF5FSPjR-63" value="LORA UART OFF" style="rounded=0;whiteSpace=wrap;html=1;" parent="WIyWlLk6GJQsqaUBKTNV-1" vertex="1">
          <mxGeometry x="1502.25" y="2090" width="132.5" height="40" as="geometry" />
        </mxCell>
        <mxCell id="4tOl5EU3HxqWjF5FSPjR-64" value="STOP" style="rounded=1;whiteSpace=wrap;html=1;" parent="WIyWlLk6GJQsqaUBKTNV-1" vertex="1">
          <mxGeometry x="1533" y="2150" width="71" height="30" as="geometry" />
        </mxCell>
        <mxCell id="4tOl5EU3HxqWjF5FSPjR-69" value="PACKAGE TO JSON FORMAT" style="text;html=1;align=center;verticalAlign=middle;resizable=0;points=[];autosize=1;strokeColor=none;fillColor=none;" parent="WIyWlLk6GJQsqaUBKTNV-1" vertex="1">
          <mxGeometry x="1675" y="1810" width="190" height="30" as="geometry" />
        </mxCell>
        <mxCell id="4tOl5EU3HxqWjF5FSPjR-73" style="edgeStyle=orthogonalEdgeStyle;rounded=0;orthogonalLoop=1;jettySize=auto;html=1;entryX=0.5;entryY=0;entryDx=0;entryDy=0;" parent="WIyWlLk6GJQsqaUBKTNV-1" source="4tOl5EU3HxqWjF5FSPjR-70" target="4tOl5EU3HxqWjF5FSPjR-72" edge="1">
          <mxGeometry relative="1" as="geometry" />
        </mxCell>
        <mxCell id="4tOl5EU3HxqWjF5FSPjR-70" value="START" style="rounded=1;whiteSpace=wrap;html=1;" parent="WIyWlLk6GJQsqaUBKTNV-1" vertex="1">
          <mxGeometry x="1736" y="1850" width="71" height="30" as="geometry" />
        </mxCell>
        <mxCell id="4tOl5EU3HxqWjF5FSPjR-71" style="edgeStyle=orthogonalEdgeStyle;rounded=0;orthogonalLoop=1;jettySize=auto;html=1;exitX=0.5;exitY=1;exitDx=0;exitDy=0;" parent="WIyWlLk6GJQsqaUBKTNV-1" source="4tOl5EU3HxqWjF5FSPjR-70" target="4tOl5EU3HxqWjF5FSPjR-70" edge="1">
          <mxGeometry relative="1" as="geometry" />
        </mxCell>
        <mxCell id="4tOl5EU3HxqWjF5FSPjR-75" style="edgeStyle=orthogonalEdgeStyle;rounded=0;orthogonalLoop=1;jettySize=auto;html=1;entryX=0.5;entryY=0;entryDx=0;entryDy=0;" parent="WIyWlLk6GJQsqaUBKTNV-1" source="4tOl5EU3HxqWjF5FSPjR-72" target="4tOl5EU3HxqWjF5FSPjR-74" edge="1">
          <mxGeometry relative="1" as="geometry" />
        </mxCell>
        <mxCell id="4tOl5EU3HxqWjF5FSPjR-72" value="ORGANIZE ALL DATA IN JSON" style="rounded=1;whiteSpace=wrap;html=1;" parent="WIyWlLk6GJQsqaUBKTNV-1" vertex="1">
          <mxGeometry x="1732.5" y="1900" width="78" height="50" as="geometry" />
        </mxCell>
        <mxCell id="4tOl5EU3HxqWjF5FSPjR-74" value="LATITUDE" style="rounded=1;whiteSpace=wrap;html=1;" parent="WIyWlLk6GJQsqaUBKTNV-1" vertex="1">
          <mxGeometry x="1736" y="1970" width="71" height="30" as="geometry" />
        </mxCell>
        <mxCell id="4tOl5EU3HxqWjF5FSPjR-76" value="LONGITUDE" style="rounded=1;whiteSpace=wrap;html=1;" parent="WIyWlLk6GJQsqaUBKTNV-1" vertex="1">
          <mxGeometry x="1736" y="2010" width="71" height="30" as="geometry" />
        </mxCell>
        <mxCell id="4tOl5EU3HxqWjF5FSPjR-77" value="VELLOCITY" style="rounded=1;whiteSpace=wrap;html=1;" parent="WIyWlLk6GJQsqaUBKTNV-1" vertex="1">
          <mxGeometry x="1736" y="2050" width="71" height="30" as="geometry" />
        </mxCell>
        <mxCell id="4tOl5EU3HxqWjF5FSPjR-78" value="TEMP" style="rounded=1;whiteSpace=wrap;html=1;" parent="WIyWlLk6GJQsqaUBKTNV-1" vertex="1">
          <mxGeometry x="1736" y="2090" width="71" height="30" as="geometry" />
        </mxCell>
        <mxCell id="4tOl5EU3HxqWjF5FSPjR-79" value="HUMI" style="rounded=1;whiteSpace=wrap;html=1;" parent="WIyWlLk6GJQsqaUBKTNV-1" vertex="1">
          <mxGeometry x="1734.5" y="2130" width="71" height="30" as="geometry" />
        </mxCell>
        <mxCell id="4tOl5EU3HxqWjF5FSPjR-80" value="X,Y,X AXIS" style="rounded=1;whiteSpace=wrap;html=1;" parent="WIyWlLk6GJQsqaUBKTNV-1" vertex="1">
          <mxGeometry x="1734" y="2170" width="71" height="30" as="geometry" />
        </mxCell>
        <mxCell id="4tOl5EU3HxqWjF5FSPjR-83" style="edgeStyle=orthogonalEdgeStyle;rounded=0;orthogonalLoop=1;jettySize=auto;html=1;entryX=0.5;entryY=1;entryDx=0;entryDy=0;" parent="WIyWlLk6GJQsqaUBKTNV-1" source="4tOl5EU3HxqWjF5FSPjR-81" target="4tOl5EU3HxqWjF5FSPjR-82" edge="1">
          <mxGeometry relative="1" as="geometry" />
        </mxCell>
        <mxCell id="4tOl5EU3HxqWjF5FSPjR-81" value="BATTERY STATUS" style="rounded=1;whiteSpace=wrap;html=1;" parent="WIyWlLk6GJQsqaUBKTNV-1" vertex="1">
          <mxGeometry x="1734" y="2210" width="71" height="30" as="geometry" />
        </mxCell>
        <mxCell id="4tOl5EU3HxqWjF5FSPjR-87" style="edgeStyle=orthogonalEdgeStyle;rounded=0;orthogonalLoop=1;jettySize=auto;html=1;entryX=0.5;entryY=1;entryDx=0;entryDy=0;" parent="WIyWlLk6GJQsqaUBKTNV-1" source="4tOl5EU3HxqWjF5FSPjR-82" target="4tOl5EU3HxqWjF5FSPjR-85" edge="1">
          <mxGeometry relative="1" as="geometry" />
        </mxCell>
        <mxCell id="4tOl5EU3HxqWjF5FSPjR-90" style="edgeStyle=orthogonalEdgeStyle;rounded=0;orthogonalLoop=1;jettySize=auto;html=1;exitX=1;exitY=0.5;exitDx=0;exitDy=0;" parent="WIyWlLk6GJQsqaUBKTNV-1" source="4tOl5EU3HxqWjF5FSPjR-82" target="4tOl5EU3HxqWjF5FSPjR-84" edge="1">
          <mxGeometry relative="1" as="geometry" />
        </mxCell>
        <mxCell id="4tOl5EU3HxqWjF5FSPjR-82" value="EXIST TIME?" style="rhombus;whiteSpace=wrap;html=1;shadow=0;fontFamily=Helvetica;fontSize=12;align=center;strokeWidth=1;spacing=6;spacingTop=-4;" parent="WIyWlLk6GJQsqaUBKTNV-1" vertex="1">
          <mxGeometry x="1840" y="2110" width="124" height="90" as="geometry" />
        </mxCell>
        <mxCell id="4tOl5EU3HxqWjF5FSPjR-89" style="edgeStyle=orthogonalEdgeStyle;rounded=0;orthogonalLoop=1;jettySize=auto;html=1;entryX=1;entryY=0.5;entryDx=0;entryDy=0;" parent="WIyWlLk6GJQsqaUBKTNV-1" source="4tOl5EU3HxqWjF5FSPjR-84" target="4tOl5EU3HxqWjF5FSPjR-85" edge="1">
          <mxGeometry relative="1" as="geometry">
            <Array as="points">
              <mxPoint x="2012" y="2075" />
            </Array>
          </mxGeometry>
        </mxCell>
        <mxCell id="4tOl5EU3HxqWjF5FSPjR-84" value="TIME" style="rounded=1;whiteSpace=wrap;html=1;" parent="WIyWlLk6GJQsqaUBKTNV-1" vertex="1">
          <mxGeometry x="1977" y="2140" width="71" height="30" as="geometry" />
        </mxCell>
        <mxCell id="4tOl5EU3HxqWjF5FSPjR-88" style="edgeStyle=orthogonalEdgeStyle;rounded=0;orthogonalLoop=1;jettySize=auto;html=1;entryX=0.5;entryY=1;entryDx=0;entryDy=0;" parent="WIyWlLk6GJQsqaUBKTNV-1" source="4tOl5EU3HxqWjF5FSPjR-85" target="4tOl5EU3HxqWjF5FSPjR-86" edge="1">
          <mxGeometry relative="1" as="geometry" />
        </mxCell>
        <mxCell id="4tOl5EU3HxqWjF5FSPjR-85" value="RSSI LORA SIGNAL" style="rounded=1;whiteSpace=wrap;html=1;" parent="WIyWlLk6GJQsqaUBKTNV-1" vertex="1">
          <mxGeometry x="1867" y="2060" width="71" height="30" as="geometry" />
        </mxCell>
        <mxCell id="4tOl5EU3HxqWjF5FSPjR-101" style="edgeStyle=orthogonalEdgeStyle;rounded=0;orthogonalLoop=1;jettySize=auto;html=1;" parent="WIyWlLk6GJQsqaUBKTNV-1" source="4tOl5EU3HxqWjF5FSPjR-86" target="4tOl5EU3HxqWjF5FSPjR-100" edge="1">
          <mxGeometry relative="1" as="geometry" />
        </mxCell>
        <mxCell id="4tOl5EU3HxqWjF5FSPjR-86" value="RSSI WIFI SIGNAL" style="rounded=1;whiteSpace=wrap;html=1;" parent="WIyWlLk6GJQsqaUBKTNV-1" vertex="1">
          <mxGeometry x="1867" y="2010" width="71" height="30" as="geometry" />
        </mxCell>
        <mxCell id="4tOl5EU3HxqWjF5FSPjR-98" value="&lt;font color=&quot;#ff0000&quot;&gt;NO&lt;/font&gt;" style="text;html=1;strokeColor=none;fillColor=none;align=center;verticalAlign=middle;whiteSpace=wrap;rounded=0;" parent="WIyWlLk6GJQsqaUBKTNV-1" vertex="1">
          <mxGeometry x="1894" y="2090" width="60" height="30" as="geometry" />
        </mxCell>
        <mxCell id="4tOl5EU3HxqWjF5FSPjR-99" value="&lt;font color=&quot;#00ff00&quot;&gt;YES&lt;/font&gt;" style="text;html=1;strokeColor=none;fillColor=none;align=center;verticalAlign=middle;whiteSpace=wrap;rounded=0;" parent="WIyWlLk6GJQsqaUBKTNV-1" vertex="1">
          <mxGeometry x="1938" y="2120" width="60" height="30" as="geometry" />
        </mxCell>
        <mxCell id="4tOl5EU3HxqWjF5FSPjR-100" value="FINISH" style="rounded=1;whiteSpace=wrap;html=1;" parent="WIyWlLk6GJQsqaUBKTNV-1" vertex="1">
          <mxGeometry x="1867" y="1950" width="71" height="30" as="geometry" />
        </mxCell>
        <mxCell id="zpGysU2we_ceWHP3mHfa-0" value="&lt;font color=&quot;#ff0000&quot;&gt;NO&lt;/font&gt;" style="text;html=1;strokeColor=none;fillColor=none;align=center;verticalAlign=middle;whiteSpace=wrap;rounded=0;" parent="WIyWlLk6GJQsqaUBKTNV-1" vertex="1">
          <mxGeometry x="2296.24" y="561.25" width="60" height="30" as="geometry" />
        </mxCell>
        <mxCell id="51wwYu-zRsbSfv2sNWvi-2" style="edgeStyle=orthogonalEdgeStyle;rounded=0;orthogonalLoop=1;jettySize=auto;html=1;" parent="WIyWlLk6GJQsqaUBKTNV-1" source="51wwYu-zRsbSfv2sNWvi-0" target="myWWar3E-hMSdHv3xqH_-35" edge="1">
          <mxGeometry relative="1" as="geometry" />
        </mxCell>
        <mxCell id="51wwYu-zRsbSfv2sNWvi-4" style="edgeStyle=orthogonalEdgeStyle;rounded=0;orthogonalLoop=1;jettySize=auto;html=1;exitX=1;exitY=0.5;exitDx=0;exitDy=0;" parent="WIyWlLk6GJQsqaUBKTNV-1" source="51wwYu-zRsbSfv2sNWvi-0" target="51wwYu-zRsbSfv2sNWvi-3" edge="1">
          <mxGeometry relative="1" as="geometry" />
        </mxCell>
        <mxCell id="51wwYu-zRsbSfv2sNWvi-0" value="FOUND ADX245 SHT21 AND L80" style="rhombus;whiteSpace=wrap;html=1;shadow=0;fontFamily=Helvetica;fontSize=12;align=center;strokeWidth=1;spacing=6;spacingTop=-4;" parent="WIyWlLk6GJQsqaUBKTNV-1" vertex="1">
          <mxGeometry x="650" y="349" width="124" height="90" as="geometry" />
        </mxCell>
        <mxCell id="OkAuhqTFZf1XxPpOpl2h-42" style="edgeStyle=orthogonalEdgeStyle;rounded=0;orthogonalLoop=1;jettySize=auto;html=1;entryX=1;entryY=0.5;entryDx=0;entryDy=0;" edge="1" parent="WIyWlLk6GJQsqaUBKTNV-1" source="51wwYu-zRsbSfv2sNWvi-3" target="myWWar3E-hMSdHv3xqH_-38">
          <mxGeometry relative="1" as="geometry">
            <Array as="points">
              <mxPoint x="930" y="387" />
              <mxPoint x="930" y="713" />
            </Array>
          </mxGeometry>
        </mxCell>
        <mxCell id="51wwYu-zRsbSfv2sNWvi-3" value="SECURITY&amp;nbsp; &amp;nbsp;MODE" style="shape=process;whiteSpace=wrap;html=1;backgroundOutline=1;size=0.10833333333333334;" parent="WIyWlLk6GJQsqaUBKTNV-1" vertex="1">
          <mxGeometry x="791.5" y="357.5" width="120" height="60" as="geometry" />
        </mxCell>
        <mxCell id="51wwYu-zRsbSfv2sNWvi-6" value="&lt;span style=&quot;color: rgb(0, 0, 0); font-family: Helvetica; font-size: 12px; font-style: normal; font-variant-ligatures: normal; font-variant-caps: normal; font-weight: 400; letter-spacing: normal; orphans: 2; text-align: center; text-indent: 0px; text-transform: none; widows: 2; word-spacing: 0px; -webkit-text-stroke-width: 0px; background-color: rgb(251, 251, 251); text-decoration-thickness: initial; text-decoration-style: initial; text-decoration-color: initial; float: none; display: inline !important;&quot;&gt;SECURITY&amp;nbsp; &amp;nbsp;MODE&lt;/span&gt;" style="text;whiteSpace=wrap;html=1;" parent="WIyWlLk6GJQsqaUBKTNV-1" vertex="1">
          <mxGeometry x="615.82" y="800" width="140" height="40" as="geometry" />
        </mxCell>
        <mxCell id="51wwYu-zRsbSfv2sNWvi-11" style="edgeStyle=orthogonalEdgeStyle;rounded=0;orthogonalLoop=1;jettySize=auto;html=1;" parent="WIyWlLk6GJQsqaUBKTNV-1" source="51wwYu-zRsbSfv2sNWvi-8" target="51wwYu-zRsbSfv2sNWvi-9" edge="1">
          <mxGeometry relative="1" as="geometry" />
        </mxCell>
        <mxCell id="51wwYu-zRsbSfv2sNWvi-8" value="START" style="rounded=1;whiteSpace=wrap;html=1;" parent="WIyWlLk6GJQsqaUBKTNV-1" vertex="1">
          <mxGeometry x="666.94" y="835" width="70" height="35" as="geometry" />
        </mxCell>
        <mxCell id="51wwYu-zRsbSfv2sNWvi-14" style="edgeStyle=orthogonalEdgeStyle;rounded=0;orthogonalLoop=1;jettySize=auto;html=1;exitX=0.5;exitY=1;exitDx=0;exitDy=0;entryX=0.5;entryY=0;entryDx=0;entryDy=0;" parent="WIyWlLk6GJQsqaUBKTNV-1" source="51wwYu-zRsbSfv2sNWvi-9" target="51wwYu-zRsbSfv2sNWvi-12" edge="1">
          <mxGeometry relative="1" as="geometry" />
        </mxCell>
        <mxCell id="51wwYu-zRsbSfv2sNWvi-9" value="ALL MODULES OFF" style="rounded=0;whiteSpace=wrap;html=1;" parent="WIyWlLk6GJQsqaUBKTNV-1" vertex="1">
          <mxGeometry x="626.94" y="890" width="150" height="40" as="geometry" />
        </mxCell>
        <mxCell id="51wwYu-zRsbSfv2sNWvi-15" style="edgeStyle=orthogonalEdgeStyle;rounded=0;orthogonalLoop=1;jettySize=auto;html=1;entryX=0.5;entryY=0;entryDx=0;entryDy=0;" parent="WIyWlLk6GJQsqaUBKTNV-1" source="51wwYu-zRsbSfv2sNWvi-12" target="51wwYu-zRsbSfv2sNWvi-13" edge="1">
          <mxGeometry relative="1" as="geometry" />
        </mxCell>
        <mxCell id="51wwYu-zRsbSfv2sNWvi-12" value="GNSS IN STANDBY" style="rounded=0;whiteSpace=wrap;html=1;" parent="WIyWlLk6GJQsqaUBKTNV-1" vertex="1">
          <mxGeometry x="627.44" y="955" width="150" height="40" as="geometry" />
        </mxCell>
        <mxCell id="51wwYu-zRsbSfv2sNWvi-17" style="edgeStyle=orthogonalEdgeStyle;rounded=0;orthogonalLoop=1;jettySize=auto;html=1;" parent="WIyWlLk6GJQsqaUBKTNV-1" source="51wwYu-zRsbSfv2sNWvi-13" target="51wwYu-zRsbSfv2sNWvi-16" edge="1">
          <mxGeometry relative="1" as="geometry" />
        </mxCell>
        <mxCell id="51wwYu-zRsbSfv2sNWvi-13" value="DEEP SLEEP MODE" style="rounded=0;whiteSpace=wrap;html=1;" parent="WIyWlLk6GJQsqaUBKTNV-1" vertex="1">
          <mxGeometry x="626.94" y="1015" width="150" height="40" as="geometry" />
        </mxCell>
        <mxCell id="51wwYu-zRsbSfv2sNWvi-16" value="FINISH" style="rounded=1;whiteSpace=wrap;html=1;" parent="WIyWlLk6GJQsqaUBKTNV-1" vertex="1">
          <mxGeometry x="666.94" y="1075" width="70" height="35" as="geometry" />
        </mxCell>
        <mxCell id="CjqXBW7dsxjNqschvaUf-6" style="edgeStyle=orthogonalEdgeStyle;rounded=0;orthogonalLoop=1;jettySize=auto;html=1;" parent="WIyWlLk6GJQsqaUBKTNV-1" target="KdF7l_LlImrHwwRQQBVm-5" edge="1">
          <mxGeometry relative="1" as="geometry">
            <mxPoint x="1483.230769230769" y="235.99330024813912" as="sourcePoint" />
          </mxGeometry>
        </mxCell>
        <mxCell id="CjqXBW7dsxjNqschvaUf-8" value="&lt;font color=&quot;#ff0000&quot;&gt;NO&lt;/font&gt;" style="text;html=1;strokeColor=none;fillColor=none;align=center;verticalAlign=middle;whiteSpace=wrap;rounded=0;" parent="WIyWlLk6GJQsqaUBKTNV-1" vertex="1">
          <mxGeometry x="1469.24" y="223.5" width="60" height="30" as="geometry" />
        </mxCell>
        <mxCell id="RyRYwEEPjjqfXFh2yq3J-7" value="FINISH" style="rounded=1;whiteSpace=wrap;html=1;" parent="WIyWlLk6GJQsqaUBKTNV-1" vertex="1">
          <mxGeometry x="284.13" y="1390" width="86" height="40" as="geometry" />
        </mxCell>
        <mxCell id="RyRYwEEPjjqfXFh2yq3J-18" style="edgeStyle=orthogonalEdgeStyle;rounded=0;orthogonalLoop=1;jettySize=auto;html=1;entryX=0.5;entryY=0;entryDx=0;entryDy=0;" parent="WIyWlLk6GJQsqaUBKTNV-1" source="RyRYwEEPjjqfXFh2yq3J-9" target="y-wZkIsJVl8CtrZp_BYa-48" edge="1">
          <mxGeometry relative="1" as="geometry" />
        </mxCell>
        <mxCell id="RyRYwEEPjjqfXFh2yq3J-9" value="Taks 3 - Wait LoRa Signal" style="shape=process;whiteSpace=wrap;html=1;backgroundOutline=1;" parent="WIyWlLk6GJQsqaUBKTNV-1" vertex="1">
          <mxGeometry x="636.63" y="1745" width="120" height="60" as="geometry" />
        </mxCell>
        <mxCell id="RyRYwEEPjjqfXFh2yq3J-16" style="edgeStyle=orthogonalEdgeStyle;rounded=0;orthogonalLoop=1;jettySize=auto;html=1;entryX=0.5;entryY=0;entryDx=0;entryDy=0;" parent="WIyWlLk6GJQsqaUBKTNV-1" source="RyRYwEEPjjqfXFh2yq3J-10" target="RyRYwEEPjjqfXFh2yq3J-9" edge="1">
          <mxGeometry relative="1" as="geometry" />
        </mxCell>
        <mxCell id="RyRYwEEPjjqfXFh2yq3J-10" value="Task 2 - Publish status gatway" style="shape=process;whiteSpace=wrap;html=1;backgroundOutline=1;" parent="WIyWlLk6GJQsqaUBKTNV-1" vertex="1">
          <mxGeometry x="636.63" y="1660" width="120" height="60" as="geometry" />
        </mxCell>
        <mxCell id="RyRYwEEPjjqfXFh2yq3J-13" style="edgeStyle=orthogonalEdgeStyle;rounded=0;orthogonalLoop=1;jettySize=auto;html=1;" parent="WIyWlLk6GJQsqaUBKTNV-1" source="RyRYwEEPjjqfXFh2yq3J-11" target="RyRYwEEPjjqfXFh2yq3J-10" edge="1">
          <mxGeometry relative="1" as="geometry" />
        </mxCell>
        <mxCell id="RyRYwEEPjjqfXFh2yq3J-11" value="Taks 1 - Status connections with MQTT Broker" style="shape=process;whiteSpace=wrap;html=1;backgroundOutline=1;" parent="WIyWlLk6GJQsqaUBKTNV-1" vertex="1">
          <mxGeometry x="636.63" y="1580" width="120" height="60" as="geometry" />
        </mxCell>
        <mxCell id="RyRYwEEPjjqfXFh2yq3J-19" value="Task 2 - Publish status gatway" style="text;html=1;align=center;verticalAlign=middle;resizable=0;points=[];autosize=1;strokeColor=none;fillColor=none;" parent="WIyWlLk6GJQsqaUBKTNV-1" vertex="1">
          <mxGeometry x="1243.99" y="1200" width="180" height="30" as="geometry" />
        </mxCell>
        <mxCell id="RyRYwEEPjjqfXFh2yq3J-51" style="edgeStyle=orthogonalEdgeStyle;rounded=0;orthogonalLoop=1;jettySize=auto;html=1;entryX=0.5;entryY=0;entryDx=0;entryDy=0;" parent="WIyWlLk6GJQsqaUBKTNV-1" source="RyRYwEEPjjqfXFh2yq3J-20" target="RyRYwEEPjjqfXFh2yq3J-49" edge="1">
          <mxGeometry relative="1" as="geometry" />
        </mxCell>
        <mxCell id="RyRYwEEPjjqfXFh2yq3J-20" value="START TASK" style="rounded=1;whiteSpace=wrap;html=1;" parent="WIyWlLk6GJQsqaUBKTNV-1" vertex="1">
          <mxGeometry x="1296.49" y="1230" width="71" height="30" as="geometry" />
        </mxCell>
        <mxCell id="RyRYwEEPjjqfXFh2yq3J-25" style="edgeStyle=orthogonalEdgeStyle;rounded=0;orthogonalLoop=1;jettySize=auto;html=1;" parent="WIyWlLk6GJQsqaUBKTNV-1" source="RyRYwEEPjjqfXFh2yq3J-21" target="RyRYwEEPjjqfXFh2yq3J-23" edge="1">
          <mxGeometry relative="1" as="geometry" />
        </mxCell>
        <mxCell id="RyRYwEEPjjqfXFh2yq3J-29" style="edgeStyle=orthogonalEdgeStyle;rounded=0;orthogonalLoop=1;jettySize=auto;html=1;entryX=1;entryY=0.5;entryDx=0;entryDy=0;" parent="WIyWlLk6GJQsqaUBKTNV-1" source="RyRYwEEPjjqfXFh2yq3J-21" edge="1">
          <mxGeometry relative="1" as="geometry">
            <mxPoint x="1250.24" y="1380" as="targetPoint" />
          </mxGeometry>
        </mxCell>
        <mxCell id="RyRYwEEPjjqfXFh2yq3J-21" value="WIFI ANT MQTT OK?" style="rhombus;whiteSpace=wrap;html=1;shadow=0;fontFamily=Helvetica;fontSize=12;align=center;strokeWidth=1;spacing=6;spacingTop=-4;" parent="WIyWlLk6GJQsqaUBKTNV-1" vertex="1">
          <mxGeometry x="1269.99" y="1335" width="124" height="90" as="geometry" />
        </mxCell>
        <mxCell id="RyRYwEEPjjqfXFh2yq3J-27" style="edgeStyle=orthogonalEdgeStyle;rounded=0;orthogonalLoop=1;jettySize=auto;html=1;" parent="WIyWlLk6GJQsqaUBKTNV-1" source="RyRYwEEPjjqfXFh2yq3J-23" target="RyRYwEEPjjqfXFh2yq3J-26" edge="1">
          <mxGeometry relative="1" as="geometry" />
        </mxCell>
        <mxCell id="RyRYwEEPjjqfXFh2yq3J-23" value="SEND GATWAY&lt;br&gt;&amp;nbsp;STATUS&amp;nbsp; TO MQTT" style="rounded=0;whiteSpace=wrap;html=1;" parent="WIyWlLk6GJQsqaUBKTNV-1" vertex="1">
          <mxGeometry x="1265.74" y="1460" width="132.5" height="40" as="geometry" />
        </mxCell>
        <mxCell id="RyRYwEEPjjqfXFh2yq3J-52" style="edgeStyle=orthogonalEdgeStyle;rounded=0;orthogonalLoop=1;jettySize=auto;html=1;entryX=1;entryY=0.5;entryDx=0;entryDy=0;" parent="WIyWlLk6GJQsqaUBKTNV-1" source="RyRYwEEPjjqfXFh2yq3J-26" target="RyRYwEEPjjqfXFh2yq3J-49" edge="1">
          <mxGeometry relative="1" as="geometry">
            <Array as="points">
              <mxPoint x="1425.74" y="1545" />
              <mxPoint x="1425.74" y="1295" />
            </Array>
          </mxGeometry>
        </mxCell>
        <mxCell id="RyRYwEEPjjqfXFh2yq3J-26" value="DELAY&amp;nbsp;" style="rounded=1;whiteSpace=wrap;html=1;" parent="WIyWlLk6GJQsqaUBKTNV-1" vertex="1">
          <mxGeometry x="1296.49" y="1530" width="71" height="30" as="geometry" />
        </mxCell>
        <mxCell id="RyRYwEEPjjqfXFh2yq3J-30" style="edgeStyle=orthogonalEdgeStyle;rounded=0;orthogonalLoop=1;jettySize=auto;html=1;entryX=0;entryY=0.5;entryDx=0;entryDy=0;" parent="WIyWlLk6GJQsqaUBKTNV-1" target="RyRYwEEPjjqfXFh2yq3J-23" edge="1">
          <mxGeometry relative="1" as="geometry">
            <Array as="points">
              <mxPoint x="1169.99" y="1480" />
            </Array>
            <mxPoint x="1170.0031578947367" y="1400" as="sourcePoint" />
          </mxGeometry>
        </mxCell>
        <mxCell id="RyRYwEEPjjqfXFh2yq3J-28" value="RECONNECT TO MQTT BROKER" style="rounded=0;whiteSpace=wrap;html=1;" parent="WIyWlLk6GJQsqaUBKTNV-1" vertex="1">
          <mxGeometry x="1132" y="1370" width="132.5" height="40" as="geometry" />
        </mxCell>
        <mxCell id="RyRYwEEPjjqfXFh2yq3J-32" value="Taks 1 - Status connections with MQTT Broker" style="text;html=1;align=center;verticalAlign=middle;resizable=0;points=[];autosize=1;strokeColor=none;fillColor=none;" parent="WIyWlLk6GJQsqaUBKTNV-1" vertex="1">
          <mxGeometry x="883.5" y="1200" width="270" height="30" as="geometry" />
        </mxCell>
        <mxCell id="RyRYwEEPjjqfXFh2yq3J-48" style="edgeStyle=orthogonalEdgeStyle;rounded=0;orthogonalLoop=1;jettySize=auto;html=1;" parent="WIyWlLk6GJQsqaUBKTNV-1" source="RyRYwEEPjjqfXFh2yq3J-34" target="RyRYwEEPjjqfXFh2yq3J-45" edge="1">
          <mxGeometry relative="1" as="geometry" />
        </mxCell>
        <mxCell id="RyRYwEEPjjqfXFh2yq3J-34" value="START TASK" style="rounded=1;whiteSpace=wrap;html=1;" parent="WIyWlLk6GJQsqaUBKTNV-1" vertex="1">
          <mxGeometry x="979.25" y="1230" width="71" height="30" as="geometry" />
        </mxCell>
        <mxCell id="RyRYwEEPjjqfXFh2yq3J-54" style="edgeStyle=orthogonalEdgeStyle;rounded=0;orthogonalLoop=1;jettySize=auto;html=1;" parent="WIyWlLk6GJQsqaUBKTNV-1" source="RyRYwEEPjjqfXFh2yq3J-37" target="RyRYwEEPjjqfXFh2yq3J-39" edge="1">
          <mxGeometry relative="1" as="geometry">
            <Array as="points">
              <mxPoint x="886.5" y="1375" />
            </Array>
          </mxGeometry>
        </mxCell>
        <mxCell id="RyRYwEEPjjqfXFh2yq3J-56" style="edgeStyle=orthogonalEdgeStyle;rounded=0;orthogonalLoop=1;jettySize=auto;html=1;" parent="WIyWlLk6GJQsqaUBKTNV-1" source="RyRYwEEPjjqfXFh2yq3J-37" target="RyRYwEEPjjqfXFh2yq3J-55" edge="1">
          <mxGeometry relative="1" as="geometry" />
        </mxCell>
        <mxCell id="RyRYwEEPjjqfXFh2yq3J-37" value="WIFI ANT MQTT OK?" style="rhombus;whiteSpace=wrap;html=1;shadow=0;fontFamily=Helvetica;fontSize=12;align=center;strokeWidth=1;spacing=6;spacingTop=-4;" parent="WIyWlLk6GJQsqaUBKTNV-1" vertex="1">
          <mxGeometry x="952.75" y="1330" width="124" height="90" as="geometry" />
        </mxCell>
        <mxCell id="RyRYwEEPjjqfXFh2yq3J-58" style="edgeStyle=orthogonalEdgeStyle;rounded=0;orthogonalLoop=1;jettySize=auto;html=1;entryX=0;entryY=0.5;entryDx=0;entryDy=0;" parent="WIyWlLk6GJQsqaUBKTNV-1" source="RyRYwEEPjjqfXFh2yq3J-39" target="RyRYwEEPjjqfXFh2yq3J-41" edge="1">
          <mxGeometry relative="1" as="geometry">
            <Array as="points">
              <mxPoint x="890.5" y="1530" />
            </Array>
          </mxGeometry>
        </mxCell>
        <mxCell id="RyRYwEEPjjqfXFh2yq3J-39" value="BLINK LOCAL LED" style="rounded=0;whiteSpace=wrap;html=1;" parent="WIyWlLk6GJQsqaUBKTNV-1" vertex="1">
          <mxGeometry x="820.25" y="1395" width="132.5" height="40" as="geometry" />
        </mxCell>
        <mxCell id="RyRYwEEPjjqfXFh2yq3J-46" style="edgeStyle=orthogonalEdgeStyle;rounded=0;orthogonalLoop=1;jettySize=auto;html=1;entryX=1;entryY=0.5;entryDx=0;entryDy=0;" parent="WIyWlLk6GJQsqaUBKTNV-1" source="RyRYwEEPjjqfXFh2yq3J-41" target="RyRYwEEPjjqfXFh2yq3J-45" edge="1">
          <mxGeometry relative="1" as="geometry">
            <Array as="points">
              <mxPoint x="1100.5" y="1530" />
              <mxPoint x="1100.5" y="1295" />
            </Array>
          </mxGeometry>
        </mxCell>
        <mxCell id="RyRYwEEPjjqfXFh2yq3J-41" value="DELAY&amp;nbsp;" style="rounded=1;whiteSpace=wrap;html=1;" parent="WIyWlLk6GJQsqaUBKTNV-1" vertex="1">
          <mxGeometry x="979.25" y="1515" width="71" height="30" as="geometry" />
        </mxCell>
        <mxCell id="RyRYwEEPjjqfXFh2yq3J-47" style="edgeStyle=orthogonalEdgeStyle;rounded=0;orthogonalLoop=1;jettySize=auto;html=1;" parent="WIyWlLk6GJQsqaUBKTNV-1" source="RyRYwEEPjjqfXFh2yq3J-45" target="RyRYwEEPjjqfXFh2yq3J-37" edge="1">
          <mxGeometry relative="1" as="geometry" />
        </mxCell>
        <mxCell id="RyRYwEEPjjqfXFh2yq3J-45" value="LOOP" style="rounded=1;whiteSpace=wrap;html=1;" parent="WIyWlLk6GJQsqaUBKTNV-1" vertex="1">
          <mxGeometry x="979.25" y="1280" width="71" height="30" as="geometry" />
        </mxCell>
        <mxCell id="RyRYwEEPjjqfXFh2yq3J-50" style="edgeStyle=orthogonalEdgeStyle;rounded=0;orthogonalLoop=1;jettySize=auto;html=1;" parent="WIyWlLk6GJQsqaUBKTNV-1" source="RyRYwEEPjjqfXFh2yq3J-49" target="RyRYwEEPjjqfXFh2yq3J-21" edge="1">
          <mxGeometry relative="1" as="geometry" />
        </mxCell>
        <mxCell id="RyRYwEEPjjqfXFh2yq3J-49" value="LOOP" style="rounded=1;whiteSpace=wrap;html=1;" parent="WIyWlLk6GJQsqaUBKTNV-1" vertex="1">
          <mxGeometry x="1296.49" y="1280" width="71" height="30" as="geometry" />
        </mxCell>
        <mxCell id="RyRYwEEPjjqfXFh2yq3J-57" style="edgeStyle=orthogonalEdgeStyle;rounded=0;orthogonalLoop=1;jettySize=auto;html=1;entryX=0.5;entryY=0;entryDx=0;entryDy=0;" parent="WIyWlLk6GJQsqaUBKTNV-1" source="RyRYwEEPjjqfXFh2yq3J-55" target="RyRYwEEPjjqfXFh2yq3J-41" edge="1">
          <mxGeometry relative="1" as="geometry" />
        </mxCell>
        <mxCell id="RyRYwEEPjjqfXFh2yq3J-55" value="&amp;nbsp;LOCAL LED OFF" style="rounded=0;whiteSpace=wrap;html=1;" parent="WIyWlLk6GJQsqaUBKTNV-1" vertex="1">
          <mxGeometry x="948.5" y="1450" width="132.5" height="40" as="geometry" />
        </mxCell>
        <mxCell id="BxCm3gYWdpMPkskWdbPp-0" value="&lt;font color=&quot;#00ff00&quot;&gt;YES&lt;/font&gt;" style="text;html=1;strokeColor=none;fillColor=none;align=center;verticalAlign=middle;whiteSpace=wrap;rounded=0;" parent="WIyWlLk6GJQsqaUBKTNV-1" vertex="1">
          <mxGeometry x="1330.49" y="1415" width="60" height="30" as="geometry" />
        </mxCell>
        <mxCell id="BxCm3gYWdpMPkskWdbPp-1" value="&lt;font color=&quot;#00ff00&quot;&gt;YES&lt;/font&gt;" style="text;html=1;strokeColor=none;fillColor=none;align=center;verticalAlign=middle;whiteSpace=wrap;rounded=0;" parent="WIyWlLk6GJQsqaUBKTNV-1" vertex="1">
          <mxGeometry x="1021" y="1405" width="60" height="30" as="geometry" />
        </mxCell>
        <mxCell id="BxCm3gYWdpMPkskWdbPp-2" value="&lt;font color=&quot;#ff0000&quot;&gt;NO&lt;/font&gt;" style="text;html=1;strokeColor=none;fillColor=none;align=center;verticalAlign=middle;whiteSpace=wrap;rounded=0;" parent="WIyWlLk6GJQsqaUBKTNV-1" vertex="1">
          <mxGeometry x="909" y="1345" width="60" height="30" as="geometry" />
        </mxCell>
        <mxCell id="BxCm3gYWdpMPkskWdbPp-3" value="&lt;font color=&quot;#ff0000&quot;&gt;NO&lt;/font&gt;" style="text;html=1;strokeColor=none;fillColor=none;align=center;verticalAlign=middle;whiteSpace=wrap;rounded=0;" parent="WIyWlLk6GJQsqaUBKTNV-1" vertex="1">
          <mxGeometry x="1239.74" y="1340" width="60" height="30" as="geometry" />
        </mxCell>
        <mxCell id="BxCm3gYWdpMPkskWdbPp-6" style="edgeStyle=orthogonalEdgeStyle;rounded=0;orthogonalLoop=1;jettySize=auto;html=1;" parent="WIyWlLk6GJQsqaUBKTNV-1" source="BxCm3gYWdpMPkskWdbPp-4" target="y-wZkIsJVl8CtrZp_BYa-62" edge="1">
          <mxGeometry relative="1" as="geometry" />
        </mxCell>
        <mxCell id="BxCm3gYWdpMPkskWdbPp-4" value="LOOP" style="rounded=1;whiteSpace=wrap;html=1;" parent="WIyWlLk6GJQsqaUBKTNV-1" vertex="1">
          <mxGeometry x="1523.47" y="1290" width="71" height="30" as="geometry" />
        </mxCell>
        <mxCell id="OkAuhqTFZf1XxPpOpl2h-12" style="edgeStyle=orthogonalEdgeStyle;rounded=0;orthogonalLoop=1;jettySize=auto;html=1;" edge="1" parent="WIyWlLk6GJQsqaUBKTNV-1" source="OkAuhqTFZf1XxPpOpl2h-0" target="OkAuhqTFZf1XxPpOpl2h-3">
          <mxGeometry relative="1" as="geometry" />
        </mxCell>
        <mxCell id="OkAuhqTFZf1XxPpOpl2h-0" value="PINS DEFINATIONS" style="rounded=0;whiteSpace=wrap;html=1;" vertex="1" parent="WIyWlLk6GJQsqaUBKTNV-1">
          <mxGeometry x="650" y="225" width="124" height="40" as="geometry" />
        </mxCell>
        <mxCell id="OkAuhqTFZf1XxPpOpl2h-16" style="edgeStyle=orthogonalEdgeStyle;rounded=0;orthogonalLoop=1;jettySize=auto;html=1;" edge="1" parent="WIyWlLk6GJQsqaUBKTNV-1" source="OkAuhqTFZf1XxPpOpl2h-3" target="51wwYu-zRsbSfv2sNWvi-0">
          <mxGeometry relative="1" as="geometry" />
        </mxCell>
        <mxCell id="OkAuhqTFZf1XxPpOpl2h-3" value="SHT21 AND ADXL245 BJT ON" style="rounded=0;whiteSpace=wrap;html=1;" vertex="1" parent="WIyWlLk6GJQsqaUBKTNV-1">
          <mxGeometry x="650" y="286.5" width="124" height="40" as="geometry" />
        </mxCell>
        <mxCell id="OkAuhqTFZf1XxPpOpl2h-9" style="edgeStyle=orthogonalEdgeStyle;rounded=0;orthogonalLoop=1;jettySize=auto;html=1;" edge="1" parent="WIyWlLk6GJQsqaUBKTNV-1" source="OkAuhqTFZf1XxPpOpl2h-6" target="myWWar3E-hMSdHv3xqH_-33">
          <mxGeometry relative="1" as="geometry" />
        </mxCell>
        <mxCell id="OkAuhqTFZf1XxPpOpl2h-6" value="20mHz CPU" style="rounded=0;whiteSpace=wrap;html=1;" vertex="1" parent="WIyWlLk6GJQsqaUBKTNV-1">
          <mxGeometry x="650" y="105" width="124" height="40" as="geometry" />
        </mxCell>
        <mxCell id="OkAuhqTFZf1XxPpOpl2h-17" value="&lt;font color=&quot;#ff0000&quot;&gt;NO&lt;/font&gt;" style="text;html=1;strokeColor=none;fillColor=none;align=center;verticalAlign=middle;whiteSpace=wrap;rounded=0;" vertex="1" parent="WIyWlLk6GJQsqaUBKTNV-1">
          <mxGeometry x="750" y="365" width="60" height="30" as="geometry" />
        </mxCell>
        <mxCell id="OkAuhqTFZf1XxPpOpl2h-18" value="&lt;font color=&quot;#00ff00&quot;&gt;YES&lt;/font&gt;" style="text;html=1;strokeColor=none;fillColor=none;align=center;verticalAlign=middle;whiteSpace=wrap;rounded=0;" vertex="1" parent="WIyWlLk6GJQsqaUBKTNV-1">
          <mxGeometry x="702.88" y="429" width="60" height="30" as="geometry" />
        </mxCell>
        <mxCell id="OkAuhqTFZf1XxPpOpl2h-41" style="edgeStyle=orthogonalEdgeStyle;rounded=0;orthogonalLoop=1;jettySize=auto;html=1;entryX=0;entryY=0.5;entryDx=0;entryDy=0;" edge="1" parent="WIyWlLk6GJQsqaUBKTNV-1" source="OkAuhqTFZf1XxPpOpl2h-19" target="OkAuhqTFZf1XxPpOpl2h-40">
          <mxGeometry relative="1" as="geometry" />
        </mxCell>
        <mxCell id="OkAuhqTFZf1XxPpOpl2h-44" style="edgeStyle=orthogonalEdgeStyle;rounded=0;orthogonalLoop=1;jettySize=auto;html=1;" edge="1" parent="WIyWlLk6GJQsqaUBKTNV-1" source="OkAuhqTFZf1XxPpOpl2h-19" target="myWWar3E-hMSdHv3xqH_-38">
          <mxGeometry relative="1" as="geometry" />
        </mxCell>
        <mxCell id="OkAuhqTFZf1XxPpOpl2h-19" value="MANUALLY RESET SYSTEM?" style="rhombus;whiteSpace=wrap;html=1;shadow=0;fontFamily=Helvetica;fontSize=12;align=center;strokeWidth=1;spacing=6;spacingTop=-4;" vertex="1" parent="WIyWlLk6GJQsqaUBKTNV-1">
          <mxGeometry x="650" y="520" width="124" height="90" as="geometry" />
        </mxCell>
        <mxCell id="OkAuhqTFZf1XxPpOpl2h-36" style="edgeStyle=orthogonalEdgeStyle;rounded=0;orthogonalLoop=1;jettySize=auto;html=1;" edge="1" parent="WIyWlLk6GJQsqaUBKTNV-1" source="OkAuhqTFZf1XxPpOpl2h-26" target="OkAuhqTFZf1XxPpOpl2h-27">
          <mxGeometry relative="1" as="geometry" />
        </mxCell>
        <mxCell id="OkAuhqTFZf1XxPpOpl2h-26" value="SYSTEM READ BATTERY ON" style="rounded=0;whiteSpace=wrap;html=1;" vertex="1" parent="WIyWlLk6GJQsqaUBKTNV-1">
          <mxGeometry x="1021" y="291" width="150" height="40" as="geometry" />
        </mxCell>
        <mxCell id="OkAuhqTFZf1XxPpOpl2h-37" style="edgeStyle=orthogonalEdgeStyle;rounded=0;orthogonalLoop=1;jettySize=auto;html=1;" edge="1" parent="WIyWlLk6GJQsqaUBKTNV-1" source="OkAuhqTFZf1XxPpOpl2h-27" target="OkAuhqTFZf1XxPpOpl2h-28">
          <mxGeometry relative="1" as="geometry" />
        </mxCell>
        <mxCell id="OkAuhqTFZf1XxPpOpl2h-27" value="READ BATTERY LEVEL" style="rounded=0;whiteSpace=wrap;html=1;" vertex="1" parent="WIyWlLk6GJQsqaUBKTNV-1">
          <mxGeometry x="1021" y="356" width="150" height="40" as="geometry" />
        </mxCell>
        <mxCell id="OkAuhqTFZf1XxPpOpl2h-53" style="edgeStyle=orthogonalEdgeStyle;rounded=0;orthogonalLoop=1;jettySize=auto;html=1;" edge="1" parent="WIyWlLk6GJQsqaUBKTNV-1" source="OkAuhqTFZf1XxPpOpl2h-28" target="OkAuhqTFZf1XxPpOpl2h-38">
          <mxGeometry relative="1" as="geometry" />
        </mxCell>
        <mxCell id="OkAuhqTFZf1XxPpOpl2h-28" value="SYSTEM READ BATTERY OFF" style="rounded=0;whiteSpace=wrap;html=1;" vertex="1" parent="WIyWlLk6GJQsqaUBKTNV-1">
          <mxGeometry x="1021" y="416" width="150" height="40" as="geometry" />
        </mxCell>
        <mxCell id="OkAuhqTFZf1XxPpOpl2h-35" style="edgeStyle=orthogonalEdgeStyle;rounded=0;orthogonalLoop=1;jettySize=auto;html=1;" edge="1" parent="WIyWlLk6GJQsqaUBKTNV-1" source="OkAuhqTFZf1XxPpOpl2h-29" target="OkAuhqTFZf1XxPpOpl2h-26">
          <mxGeometry relative="1" as="geometry" />
        </mxCell>
        <mxCell id="OkAuhqTFZf1XxPpOpl2h-29" value="SHOW LORA DETAILS" style="rounded=0;whiteSpace=wrap;html=1;" vertex="1" parent="WIyWlLk6GJQsqaUBKTNV-1">
          <mxGeometry x="1021" y="226" width="150" height="40" as="geometry" />
        </mxCell>
        <mxCell id="OkAuhqTFZf1XxPpOpl2h-34" style="edgeStyle=orthogonalEdgeStyle;rounded=0;orthogonalLoop=1;jettySize=auto;html=1;" edge="1" parent="WIyWlLk6GJQsqaUBKTNV-1" source="OkAuhqTFZf1XxPpOpl2h-30" target="OkAuhqTFZf1XxPpOpl2h-29">
          <mxGeometry relative="1" as="geometry" />
        </mxCell>
        <mxCell id="OkAuhqTFZf1XxPpOpl2h-30" value="MODULE LORA BJT ON" style="rounded=0;whiteSpace=wrap;html=1;" vertex="1" parent="WIyWlLk6GJQsqaUBKTNV-1">
          <mxGeometry x="1021" y="158.5" width="150" height="40" as="geometry" />
        </mxCell>
        <mxCell id="OkAuhqTFZf1XxPpOpl2h-51" style="edgeStyle=orthogonalEdgeStyle;rounded=0;orthogonalLoop=1;jettySize=auto;html=1;" edge="1" parent="WIyWlLk6GJQsqaUBKTNV-1" source="OkAuhqTFZf1XxPpOpl2h-38" target="OkAuhqTFZf1XxPpOpl2h-39">
          <mxGeometry relative="1" as="geometry" />
        </mxCell>
        <mxCell id="OkAuhqTFZf1XxPpOpl2h-38" value="PREPARATE THE PACKAGE TO SEND" style="rounded=0;whiteSpace=wrap;html=1;" vertex="1" parent="WIyWlLk6GJQsqaUBKTNV-1">
          <mxGeometry x="1021" y="477" width="150" height="40" as="geometry" />
        </mxCell>
        <mxCell id="OkAuhqTFZf1XxPpOpl2h-52" style="edgeStyle=orthogonalEdgeStyle;rounded=0;orthogonalLoop=1;jettySize=auto;html=1;" edge="1" parent="WIyWlLk6GJQsqaUBKTNV-1" source="OkAuhqTFZf1XxPpOpl2h-39" target="OkAuhqTFZf1XxPpOpl2h-50">
          <mxGeometry relative="1" as="geometry" />
        </mxCell>
        <mxCell id="OkAuhqTFZf1XxPpOpl2h-39" value="SYSTEM OF SEND LORA SIGNAL" style="shape=process;whiteSpace=wrap;html=1;backgroundOutline=1;" vertex="1" parent="WIyWlLk6GJQsqaUBKTNV-1">
          <mxGeometry x="1036" y="543.5" width="120" height="60" as="geometry" />
        </mxCell>
        <mxCell id="OkAuhqTFZf1XxPpOpl2h-43" style="edgeStyle=orthogonalEdgeStyle;rounded=0;orthogonalLoop=1;jettySize=auto;html=1;entryX=0.75;entryY=0;entryDx=0;entryDy=0;" edge="1" parent="WIyWlLk6GJQsqaUBKTNV-1" source="OkAuhqTFZf1XxPpOpl2h-40" target="myWWar3E-hMSdHv3xqH_-38">
          <mxGeometry relative="1" as="geometry">
            <Array as="points">
              <mxPoint x="852" y="660" />
              <mxPoint x="730" y="660" />
            </Array>
          </mxGeometry>
        </mxCell>
        <mxCell id="OkAuhqTFZf1XxPpOpl2h-40" value="SHOW AND SEND MSG" style="shape=process;whiteSpace=wrap;html=1;backgroundOutline=1;size=0.10833333333333334;" vertex="1" parent="WIyWlLk6GJQsqaUBKTNV-1">
          <mxGeometry x="791.5" y="535" width="120" height="60" as="geometry" />
        </mxCell>
        <mxCell id="OkAuhqTFZf1XxPpOpl2h-45" value="&lt;font color=&quot;#ff0000&quot;&gt;NO&lt;/font&gt;" style="text;html=1;strokeColor=none;fillColor=none;align=center;verticalAlign=middle;whiteSpace=wrap;rounded=0;" vertex="1" parent="WIyWlLk6GJQsqaUBKTNV-1">
          <mxGeometry x="666.63" y="608.5" width="60" height="30" as="geometry" />
        </mxCell>
        <mxCell id="OkAuhqTFZf1XxPpOpl2h-46" value="&lt;font color=&quot;#00ff00&quot;&gt;YES&lt;/font&gt;" style="text;html=1;strokeColor=none;fillColor=none;align=center;verticalAlign=middle;whiteSpace=wrap;rounded=0;" vertex="1" parent="WIyWlLk6GJQsqaUBKTNV-1">
          <mxGeometry x="748" y="532.5" width="60" height="30" as="geometry" />
        </mxCell>
        <mxCell id="OkAuhqTFZf1XxPpOpl2h-47" value="&lt;span style=&quot;color: rgb(0, 0, 0); font-family: Helvetica; font-size: 12px; font-style: normal; font-variant-ligatures: normal; font-variant-caps: normal; font-weight: 400; letter-spacing: normal; orphans: 2; text-align: center; text-indent: 0px; text-transform: none; widows: 2; word-spacing: 0px; -webkit-text-stroke-width: 0px; background-color: rgb(251, 251, 251); text-decoration-thickness: initial; text-decoration-style: initial; text-decoration-color: initial; float: none; display: inline !important;&quot;&gt;SHOW AND SEND MSG&lt;/span&gt;" style="text;whiteSpace=wrap;html=1;" vertex="1" parent="WIyWlLk6GJQsqaUBKTNV-1">
          <mxGeometry x="1011" y="80" width="170" height="40" as="geometry" />
        </mxCell>
        <mxCell id="OkAuhqTFZf1XxPpOpl2h-48" value="START VOID SETUP" style="rounded=1;whiteSpace=wrap;html=1;" vertex="1" parent="WIyWlLk6GJQsqaUBKTNV-1">
          <mxGeometry x="684" y="70" width="76" height="30" as="geometry" />
        </mxCell>
        <mxCell id="OkAuhqTFZf1XxPpOpl2h-54" style="edgeStyle=orthogonalEdgeStyle;rounded=0;orthogonalLoop=1;jettySize=auto;html=1;" edge="1" parent="WIyWlLk6GJQsqaUBKTNV-1" source="OkAuhqTFZf1XxPpOpl2h-49" target="OkAuhqTFZf1XxPpOpl2h-30">
          <mxGeometry relative="1" as="geometry" />
        </mxCell>
        <mxCell id="OkAuhqTFZf1XxPpOpl2h-49" value="START" style="rounded=1;whiteSpace=wrap;html=1;" vertex="1" parent="WIyWlLk6GJQsqaUBKTNV-1">
          <mxGeometry x="1061" y="105" width="70" height="35" as="geometry" />
        </mxCell>
        <mxCell id="OkAuhqTFZf1XxPpOpl2h-50" value="FINISH" style="rounded=1;whiteSpace=wrap;html=1;" vertex="1" parent="WIyWlLk6GJQsqaUBKTNV-1">
          <mxGeometry x="1061" y="625" width="70" height="35" as="geometry" />
        </mxCell>
      </root>
    </mxGraphModel>
  </diagram>
</mxfile>
